<svg width="432" height="432" viewBox="0 0 432 432" fill="none" xmlns="http://www.w3.org/2000/svg">
<path d="M220.067 223.313C219.77 223.823 220.124 224.219 220.312 224.62C224.978 234.646 228.801 244.995 232.572 255.396C234.775 261.448 237.551 267.292 240.135 273.209C243.624 281.182 247.244 289.099 250.692 297.089C253.379 303.297 255.484 309.74 258.202 315.938C258.499 316.625 259.322 317.709 258.202 318.115C257.322 318.427 257.218 317.136 256.932 316.479C253.265 308.073 250.51 299.292 246.567 291C241.484 280.313 236.937 269.401 232.359 258.5C229.859 252.557 227.874 246.406 225.536 240.396C223.843 236.047 221.947 231.776 220.129 227.479C219.942 227.156 219.728 226.854 219.484 226.573C219.437 229.443 220.083 232 220.452 234.573C221.27 240.271 222.025 246 223.327 251.589C225.155 259.474 226.702 267.412 228.395 275.318C230.124 283.375 232.088 291.375 233.994 299.386C234.978 303.547 236.317 307.646 236.885 311.87C237.963 319.802 239.905 327.594 240.525 335.61C240.78 338.922 241.838 342.167 242.385 345.464C243.525 352.375 245.291 359.183 246.213 366.104C248.046 379.927 251.182 393.49 253.754 407.162C253.864 407.698 253.937 408.235 253.973 408.776C253.973 409.073 253.942 409.412 253.51 409.448C253.348 409.469 253.197 409.438 253.062 409.354C252.921 409.271 252.827 409.156 252.77 409C252.603 408.485 252.478 407.953 252.39 407.417C250.447 397.729 248.411 388.042 246.603 378.349C245.619 373.084 245.14 367.735 244.14 362.469C242.525 353.985 240.749 345.526 239.411 337.011C238.567 331.646 237.973 326.229 236.963 320.896C236.01 315.865 235.473 310.761 234.145 305.776C233.072 301.729 232.15 297.625 231.109 293.568C229.041 285.589 227.593 277.464 225.671 269.453C224.671 265.276 223.989 261.063 223.114 256.87C222.53 254.063 221.718 251.287 221.254 248.453C220.208 241.995 219.051 235.584 218.312 229.073C218.057 227.344 217.583 225.677 216.89 224.073C216.89 227.255 216.833 230.297 216.89 233.344C217.083 241.755 216.515 250.141 216.213 258.542C216.01 263.969 216.312 269.417 216.385 274.854C216.468 280.552 216.385 286.224 216.666 291.896C216.978 297.886 217.114 303.865 216.952 309.854C216.833 314.412 216.645 318.969 216.812 323.563C216.817 324.188 216.775 324.802 216.687 325.417C216.629 325.943 216.661 326.677 215.905 326.594C215.15 326.511 215.307 325.771 215.307 325.261C215.364 319.985 215.364 314.714 215.546 309.443C215.723 304.177 215.588 298.875 215.327 293.584C215.004 286.979 215.067 280.354 214.947 273.74C214.911 271.646 214.874 269.563 214.796 267.453C214.489 259.047 215.348 250.672 215.489 242.276C215.562 237.615 215.432 232.943 215.39 228.271C215.405 228.12 215.374 227.979 215.291 227.854C215.208 227.724 215.093 227.636 214.952 227.584C214.635 228.584 214.26 229.542 214.02 230.537C212.364 237.49 210.432 244.401 209.182 251.432C207.749 259.474 206.213 267.495 204.728 275.521C203.473 282.328 202.379 289.162 201.254 295.979C200.379 301.266 199.989 306.651 198.702 311.849C196.749 319.771 195.463 327.849 192.911 335.625C192.26 337.61 192.072 339.74 191.635 341.792C189.895 349.854 188.499 358.005 186.458 365.974C182.958 379.63 180.525 393.485 177.635 407.261C177.494 407.927 177.692 409.188 176.635 409.005C175.577 408.823 176.161 407.703 176.291 407.026C178.192 397.25 179.879 387.422 182.145 377.729C184.27 368.651 186.359 359.568 188.296 350.443C189.202 346.188 190.119 341.932 190.999 337.667C191.734 334.089 193.093 330.682 193.843 327.099C195.161 320.865 196.734 314.682 197.963 308.432C198.859 303.87 199.385 299.224 200.077 294.615C201.26 286.776 202.734 278.985 204.135 271.182C205.036 266.125 206.077 261.099 207.025 256.057C207.551 253.229 207.744 250.354 208.484 247.552C209.702 242.995 210.64 238.323 211.827 233.735C212.635 230.62 213.796 227.531 213.348 224.141C212.536 226.209 211.697 228.271 210.916 230.36C207.749 238.818 203.838 246.943 200.041 255.125C198.411 258.641 197.067 262.297 195.629 265.901C193.041 272.406 190.228 278.823 187.958 285.453C184.369 295.927 179.405 305.813 175.353 316.089C175.072 316.802 174.838 317.568 174.234 318.104C174.155 318.198 174.051 318.25 173.932 318.266C173.812 318.281 173.697 318.255 173.598 318.182C173.437 318.047 173.218 317.802 173.249 317.636C173.307 317.25 173.416 316.88 173.588 316.531C175.515 312.203 177.129 307.74 179.208 303.474C182.452 296.818 184.697 289.766 187.39 282.896C190.848 274.063 194.254 265.203 197.9 256.448C200.182 250.932 202.978 245.62 205.379 240.141C207.458 235.406 209.317 230.573 210.958 225.63C208.041 229.537 205.093 233.422 202.218 237.36C200.291 239.995 198.343 242.63 196.593 245.38C190.442 255.031 184.103 264.552 177.926 274.188C173.655 280.854 169.817 287.802 165.629 294.531C163.421 298.099 161.036 301.542 158.473 304.865C156.041 308 154.15 311.521 151.52 314.516C148.02 318.511 145.442 323.151 142.296 327.412C138.562 332.495 135.411 337.995 131.577 342.99C122.895 354.302 115.359 366.396 107.307 378.136C106.926 378.688 106.676 379.974 105.723 379.339C104.77 378.698 105.801 377.948 106.192 377.36C111.713 369.063 117.208 360.74 122.812 352.505C125.916 347.943 129.484 343.719 132.562 339.141C137.343 332.042 141.999 324.849 147.083 317.974C150.359 313.547 153.713 309.156 156.932 304.677C160.963 299.063 164.978 293.432 168.327 287.365C170.322 283.766 172.577 280.307 174.76 276.813C180.739 267.24 187.046 257.886 193.109 248.37C196.999 242.255 201.317 236.474 205.551 230.62C207.093 228.49 208.968 226.568 210.036 224.099C210.182 223.771 210.562 223.485 210.208 222.985C209.067 223.682 208.353 224.802 207.468 225.729C201.27 232.193 194.864 238.443 188.166 244.386C183.155 248.839 178.744 253.886 173.984 258.568C166.947 265.505 160.525 273.005 153.504 279.974C148.973 284.464 144.202 288.714 139.765 293.307C139.27 293.823 138.572 295.042 137.754 294.104C137.098 293.344 138.307 292.834 138.791 292.323C144.416 286.386 150.728 281.182 156.254 275.167C164.833 265.823 173.676 256.74 182.614 247.74C187.265 243.063 192.312 238.776 197.077 234.209C200.583 230.854 203.89 227.318 206.999 223.594C206.072 223.99 205.171 224.432 204.296 224.927C198.307 228.693 192.072 232.078 186.27 236.141C177.15 242.516 167.9 248.709 158.78 255.089C152.286 259.646 146.072 264.563 139.624 269.172C136.145 271.662 132.551 273.974 128.838 276.099C125.39 278.078 122.291 280.594 118.723 282.365C113.963 284.719 109.786 288.011 105.265 290.75C99.869 294.016 94.8586 297.886 89.4107 301.031C77.0513 308.156 65.4732 316.443 53.5357 324.209C52.9732 324.589 52.2597 325.625 51.6138 324.63C51.1399 323.906 52.1555 323.49 52.7076 323.11C61.119 317.479 69.4003 311.641 77.994 306.307C85.7857 301.469 93.494 296.495 101.249 291.615C107.426 287.729 113.291 283.334 119.869 280.104C122.786 278.672 125.353 276.568 128.161 274.891C135.155 270.662 141.864 266.026 148.296 260.985C152.155 257.979 156.197 255.198 160.228 252.417C167.598 247.334 175.135 242.49 182.385 237.245C189.635 232 197.286 227.672 204.869 223.089C206.26 222.25 207.494 221.162 209.072 219.985C208.395 219.953 207.76 220.11 207.171 220.453C197.208 225.042 186.937 228.849 176.64 232.615C170.223 234.964 164.02 237.891 157.749 240.63C149.708 244.146 141.734 247.828 133.655 251.25C127.791 253.729 121.744 255.766 115.9 258.302C115.286 258.568 114.26 259.344 113.879 258.302C113.499 257.266 114.77 257.292 115.4 257.011C123.572 253.375 132.171 250.761 140.249 246.906C151.067 241.745 162.14 237.162 173.166 232.49C179.093 229.979 185.26 228.042 191.26 225.693C196.025 223.834 200.702 221.74 205.369 219.615C202.442 219.542 199.635 220.198 196.807 220.589C192.187 221.235 187.562 221.912 182.989 222.839C174.379 224.594 165.822 226.615 157.218 228.37C152.28 229.386 147.317 230.417 142.4 231.589C136.057 233.11 129.791 235.031 123.4 236.235C114.624 237.88 105.843 239.552 96.9419 240.521C92.9367 240.959 89.0044 242.084 85.0097 242.703C78.6972 243.677 72.494 245.198 66.2076 246.224C61.0722 247.057 55.8899 247.62 50.7857 248.625C42.3117 250.292 33.843 251.995 25.3742 253.682C24.7597 253.807 24.1399 253.891 23.5305 254C23.1503 254.068 22.718 254.141 22.5669 253.651C22.3742 253.037 22.8586 252.844 23.2961 252.682C23.593 252.584 23.8951 252.516 24.2024 252.464C34.1242 250.49 44.0305 248.432 53.9732 246.573C59.3951 245.563 64.9055 245.12 70.3117 244.021C73.6659 243.344 77.0097 242.563 80.3951 242.068C87.9211 240.959 95.3117 239.005 102.932 238.401C106.405 238.125 109.838 237.307 113.265 236.625C116.775 235.922 120.359 235.656 123.838 234.776C129.937 233.261 136.041 231.709 142.155 230.219C147.14 229.011 152.166 227.985 157.192 226.948C165.791 225.172 174.343 223.13 182.958 221.422C188.442 220.339 194.015 219.698 199.536 218.766C201.817 218.386 204.197 218.386 206.374 217.453C206.64 217.339 207.004 217.386 207.057 216.901C206.15 216.641 205.234 216.839 204.322 216.86C193.963 217.078 183.619 216.776 173.265 216.307C167.603 216.052 161.916 216.459 156.234 216.417C146.661 216.344 137.109 217.078 127.536 217.063C120.843 217.063 114.155 216.724 107.458 216.828C106.728 216.828 105.39 217.167 105.51 215.927C105.603 215.031 106.812 215.469 107.53 215.453C116.088 215.24 124.645 215.979 133.197 215.573C145.489 215 157.791 215.057 170.093 214.87C174.051 214.807 178.025 214.927 181.973 215.224C189.603 215.792 197.218 215.406 205.051 215.479C204.067 214.469 202.874 214.495 201.879 214.245C194.629 212.459 187.442 210.375 180.088 209.125C171.114 207.604 162.192 205.828 153.239 204.219C145.51 202.828 137.749 201.656 129.978 200.537C123.359 199.563 116.817 198.209 110.353 196.479C107.046 195.604 103.614 195.261 100.353 194.198C95.2388 192.511 89.869 191.922 84.6867 190.578C76.4003 188.453 67.9211 187.271 59.6607 184.995C50.4315 182.453 40.9472 181.026 31.5722 179.099C29.2076 178.62 26.8378 178.156 24.4732 177.677C24.093 177.615 23.7128 177.531 23.3378 177.422C23.1763 177.391 23.0461 177.313 22.9472 177.188C22.8482 177.063 22.7961 176.922 22.8065 176.761C22.8169 176.594 22.8899 176.464 23.0149 176.354C23.1451 176.25 23.2909 176.209 23.4524 176.229C23.9992 176.224 24.5409 176.271 25.0774 176.365C34.619 178.266 44.1711 180.104 53.6919 182.089C59.5461 183.307 65.2649 185.099 71.1347 186.271C79.2232 187.87 87.3326 189.38 95.3222 191.38C100.593 192.693 105.827 194.177 111.14 195.313C116.077 196.37 120.911 197.839 125.958 198.427C130.739 198.974 135.452 200.084 140.239 200.667C148.275 201.656 156.145 203.573 164.135 204.802C168.515 205.479 172.812 206.703 177.197 207.313C183.697 208.188 189.963 210.042 196.343 211.412C198.536 211.88 200.682 212.61 202.864 213.146C204.28 213.495 205.723 213.865 207.228 213.589C207.088 212.865 206.426 212.896 205.963 212.724C195.895 208.99 186.155 204.479 176.411 199.985C170.145 197.089 163.629 194.719 157.197 192.203C149.385 189.162 141.51 186.276 133.723 183.151C127.598 180.693 121.687 177.709 115.53 175.307C114.827 175.031 113.416 174.834 113.859 173.807C114.301 172.781 115.333 173.761 116.051 174.031C124.338 177.188 132.182 181.406 140.546 184.365C151.843 188.354 162.905 192.948 174.01 197.432C180.046 199.87 185.848 202.891 191.822 205.516C195.999 207.36 200.312 208.985 204.567 210.703C204.879 210.912 205.197 210.912 205.51 210.703C203.749 208.61 201.327 207.365 199.208 205.766C194.947 202.511 190.614 199.307 186.103 196.417C176.676 190.334 167.338 184.156 157.885 178.13C151.208 173.875 144.27 170.021 137.546 165.828C133.978 163.604 130.53 161.203 127.202 158.63C123.994 156.162 120.411 154.214 117.353 151.547C113.411 148.104 108.838 145.552 104.645 142.464C99.2544 138.49 93.4836 135.073 88.1138 131.094C83.0513 127.339 78.0305 123.552 72.7701 120.078C66.4055 115.87 60.0565 111.63 53.7388 107.349C53.2232 107 52.1138 106.735 52.5617 105.932C53.1347 104.912 53.9315 105.834 54.5044 106.214C62.9367 111.818 71.4992 117.235 79.718 123.141C87.2336 128.531 94.8326 133.807 102.39 139.13C108.359 143.328 114.619 147.13 120.155 151.959C122.541 154.042 125.395 155.568 127.952 157.485C134.494 162.386 141.416 166.693 148.51 170.755C152.958 173.302 157.265 176.094 161.577 178.88C168.895 183.604 176.072 188.568 183.489 193.146C191.046 197.813 198.057 203.224 205.145 208.521C206.463 209.516 207.9 210.287 209.463 210.823C208.666 209.584 207.708 208.959 206.89 208.188C199.557 201.203 192.671 193.802 185.833 186.354C181.89 182.073 177.52 178.182 173.411 174.042C166.676 167.255 159.437 160.995 152.661 154.25C147.921 149.537 143.541 144.479 138.671 139.865C138.333 139.547 138.025 139.198 137.749 138.818C137.603 138.672 137.536 138.495 137.546 138.287C137.557 138.078 137.64 137.906 137.801 137.776C138.197 137.453 138.53 137.74 138.801 138.011C140.515 139.709 142.223 141.406 143.916 143.125C148.812 148.125 153.416 153.432 158.619 158.099C167.557 166.078 176.004 174.599 184.546 182.995C189.14 187.516 193.28 192.495 197.76 197.13C201.166 200.688 204.744 204.057 208.494 207.245C208.03 206.318 207.64 205.349 207.098 204.464C203.603 198.761 200.234 192.969 196.525 187.412C190.077 177.771 183.51 168.214 176.812 158.745C172.254 152.281 167.312 146.037 162.718 139.589C160.192 136.047 157.838 132.37 155.671 128.573C153.812 125.328 151.437 122.417 149.77 119.052C147.379 114.229 144.072 109.979 141.27 105.396C137.853 99.8127 133.963 94.5523 130.588 88.9637C127.291 83.5106 124.083 78.0002 120.515 72.7137C116.187 66.3335 111.9 59.9221 107.655 53.4794C107.312 52.9637 106.395 52.2919 107.124 51.7241C108.072 50.9846 108.416 52.1669 108.796 52.7294C114.442 61.1304 120.286 69.4116 125.619 78.0106C130.494 85.8752 135.515 93.6408 140.437 101.464C144.327 107.63 148.687 113.516 151.942 120.104C153.343 122.943 155.39 125.453 157.03 128.193C161.265 135.188 165.9 141.901 170.942 148.334C173.947 152.198 176.744 156.229 179.52 160.261C184.603 167.625 189.437 175.172 194.687 182.417C199.932 189.662 204.265 197.313 208.827 204.901C209.588 206.182 210.51 207.339 211.588 208.37C212.077 207.63 211.458 207.141 211.234 206.656C206.807 197.057 203.14 187.146 199.51 177.209C197.609 171.959 195.218 166.875 193.01 161.729C190.864 156.729 188.9 151.636 186.468 146.776C181.583 137.026 178.249 126.641 173.89 116.677C173.588 115.959 173.353 115.224 173.182 114.464C173.15 114.302 173.187 114.151 173.291 114.021C173.39 113.891 173.525 113.818 173.692 113.807C173.926 113.797 174.119 113.88 174.275 114.063C174.541 114.526 174.728 115.042 174.952 115.542C178.64 123.849 181.286 132.599 185.208 140.797C190.338 151.459 194.807 162.406 199.447 173.271C201.984 179.193 203.9 185.37 206.244 191.375C208.025 195.932 210.046 200.396 211.947 204.901C212.155 205.245 212.395 205.563 212.666 205.865C211.343 197.177 210.359 188.766 208.567 180.49C206.286 169.917 204.057 159.339 201.801 148.771C200.541 142.844 198.843 137.021 197.4 131.141C195.739 124.417 194.442 117.625 193.51 110.761C193.062 107.448 192.062 104.219 191.822 100.88C191.442 95.5002 189.984 90.3127 189.182 85.0106C188.239 78.7814 186.718 72.6564 185.728 66.4429C184.968 61.6877 184.447 56.8908 183.546 52.1564C181.786 42.9064 179.895 33.6773 178.083 24.4377C177.963 23.8283 177.327 22.8648 178.265 22.6408C179.369 22.3648 179.301 23.5939 179.432 24.2554C181.442 34.2502 183.655 44.2137 185.317 54.271C186.833 63.3856 188.468 72.5054 190.051 81.6044C191.27 88.6356 192.9 95.6044 193.473 102.761C193.817 107 194.994 111.172 195.609 115.401C196.27 119.964 197.223 124.427 198.322 128.875C199.463 133.552 200.744 138.198 201.833 142.891C203.041 148.115 204.004 153.401 205.249 158.62C206.708 164.75 207.666 170.99 209.161 177.104C210.864 184.068 211.76 191.162 212.89 198.209C213.379 201.25 213.432 204.417 214.869 207.474C215.275 206.969 215.15 206.469 215.135 205.995C214.822 195.099 215.234 184.214 215.572 173.323C215.864 163.844 215.661 154.323 215.291 144.865C214.869 134.375 214.77 123.891 215.088 113.401C215.15 111.38 215.088 109.354 215.088 107.323C215.088 106.787 214.984 106.214 215.359 105.75C215.499 105.568 215.682 105.464 215.911 105.448C216.145 105.495 216.312 105.63 216.405 105.854C216.484 106.318 216.515 106.781 216.499 107.25C216.447 112.844 216.458 118.438 216.208 124.037C215.911 130.641 216.541 137.24 216.661 143.844C216.905 157.146 217.359 170.443 216.567 183.74C216.14 190.886 216.4 198.042 216.807 205.24C218.083 200.141 219.385 195.057 220.609 189.953C221.369 186.781 222.103 183.594 222.708 180.386C224.739 169.604 226.765 158.828 228.655 148.026C229.702 142.057 230.468 136.042 231.359 130.047C232.353 123.349 234.015 116.797 235.421 110.182C237.187 101.891 239.671 93.7814 241.26 85.4429C242.463 79.1148 243.557 72.7241 245.218 66.5054C248.864 52.8856 251.208 39.0002 254.077 25.2241C254.202 24.6148 254.312 24.0002 254.489 23.4012C254.525 23.245 254.609 23.12 254.749 23.0314C254.885 22.9429 255.03 22.9169 255.192 22.9481C255.353 22.9741 255.484 23.0523 255.583 23.1825C255.687 23.3075 255.728 23.4533 255.718 23.62C255.708 24.0835 255.655 24.5471 255.562 25.0002C253.629 34.6929 251.728 44.3804 249.734 54.0731C248.593 59.6252 246.879 65.0419 245.77 70.6096C244.129 78.8439 242.385 87.0575 240.624 95.2658C240.244 97.0835 239.504 98.8231 239.077 100.636C237.874 105.698 236.916 110.828 235.546 115.834C233.885 121.938 233.077 128.182 232.161 134.401C230.046 148.714 227.145 162.896 224.65 177.125C223.197 185.417 221.004 193.511 219.15 201.682C218.671 203.807 218.312 205.906 218.01 208.146C218.416 207.823 218.697 207.417 218.853 206.922C222.723 196.396 227.468 186.25 232.119 176.052C235.655 168.281 238.494 160.188 241.713 152.261C244.129 146.287 246.088 140.136 248.593 134.193C251.223 127.959 254.192 121.88 256.635 115.573C256.911 114.865 257.114 113.464 258.119 113.906C259.119 114.344 258.166 115.386 257.895 116.099C254.791 124.235 250.655 131.943 247.734 140.151C243.666 151.589 239.036 162.802 234.494 174.057C232.051 180.094 229.015 185.896 226.4 191.865C224.437 196.354 222.713 200.943 220.885 205.49C220.807 205.604 220.77 205.729 220.786 205.87C220.801 206.011 220.864 206.125 220.968 206.219C223.895 202.292 226.827 198.391 229.708 194.443C231.364 192.188 233.03 189.927 234.562 187.604C240.994 177.766 247.463 167.953 253.744 158.021C257.978 151.328 261.853 144.406 266.041 137.677C268.26 134.11 270.676 130.651 273.234 127.328C275.702 124.12 277.655 120.542 280.322 117.479C283.812 113.474 286.4 108.839 289.541 104.584C293.275 99.5002 296.421 94.0054 300.254 89.0054C308.952 77.6981 316.484 65.6044 324.515 53.8491C324.593 53.7137 324.687 53.5887 324.78 53.4689C325.161 53.0575 325.385 52.12 326.124 52.6825C326.739 53.1616 326.213 53.8231 325.864 54.3387C321.926 60.2294 317.973 66.1148 314.051 72.0158C311.39 76.0314 308.791 80.1096 305.807 83.9012C301.041 89.9794 297.01 96.5419 292.562 102.823C290.942 105.104 289.301 107.38 287.76 109.709C283.807 115.792 279.03 121.349 274.9 127.38C270.999 133.078 266.885 138.641 263.525 144.719C261.536 148.323 259.275 151.776 257.093 155.271C251.103 164.828 244.801 174.188 238.744 183.698C234.895 189.745 230.614 195.459 226.432 201.255C224.629 203.75 222.385 205.995 221.301 209.167C221.978 209.167 222.218 208.672 222.525 208.339C229.994 200.281 238.046 192.839 246.135 185.412C251.103 180.854 255.661 175.813 260.348 170.938C266.385 164.667 272.296 158.276 278.385 152.057C282.848 147.495 287.687 143.318 292.114 138.724C292.609 138.209 293.254 136.964 294.103 137.875C294.807 138.636 293.598 139.156 293.119 139.662C286.952 146.12 280.02 151.844 274.03 158.49C266.051 167.339 257.655 175.761 249.296 184.235C244.661 188.927 239.603 193.198 234.859 197.771C231.437 201.052 228.182 204.505 224.859 207.891C224.583 208.094 224.458 208.365 224.478 208.703C227.14 207.61 229.442 205.88 231.895 204.453C236.265 201.912 240.583 199.266 244.77 196.438C254.312 189.979 263.827 183.49 273.239 176.849C279.697 172.292 285.942 167.354 292.39 162.761C295.812 160.313 299.348 158.047 302.999 155.959C306.51 153.938 309.676 151.37 313.312 149.573C318.01 147.255 322.109 143.995 326.572 141.313C332.307 137.86 337.676 133.828 343.405 130.391C348.728 127.193 354.098 124.037 359.265 120.563C365.593 116.302 371.942 112.068 378.307 107.854C378.885 107.479 379.687 106.422 380.26 107.25C380.968 108.276 379.609 108.599 378.989 109.021C370.786 114.542 362.593 120.078 354.322 125.5C349.713 128.537 344.801 131.063 340.202 134.115C333.067 138.844 326.01 143.698 318.687 148.11C313.963 150.953 309.155 153.662 304.525 156.651C300.265 159.391 295.801 161.766 291.838 164.953C288.379 167.714 284.661 170.141 281.098 172.771C270.697 180.443 259.9 187.526 249.312 194.922C243.499 198.979 237.442 202.599 231.416 206.318C228.801 207.932 225.864 209.146 223.749 211.531C224.093 211.979 224.421 211.714 224.744 211.563C234.905 206.844 245.442 203.057 255.932 199.141C263.062 196.485 269.932 193.13 276.968 190.209C284.072 187.25 290.885 183.651 298.051 180.823C303.973 178.485 309.984 176.36 315.807 173.771C315.942 173.693 316.088 173.63 316.239 173.594C316.874 173.505 317.739 172.776 318.067 173.703C318.4 174.636 317.286 174.667 316.718 174.922C309.036 178.339 300.984 180.818 293.359 184.365C282.004 189.656 270.494 194.589 258.937 199.422C252.921 201.938 246.697 203.938 240.619 206.318C235.853 208.182 231.171 210.266 226.562 212.604C228.015 212.443 229.484 212.318 230.932 212.099C235.926 211.339 240.916 210.526 245.916 209.787C249.697 209.224 253.353 208.13 257.083 207.36C265.848 205.563 274.624 203.823 283.359 201.88C289.192 200.589 294.932 198.87 300.77 197.557C305.161 196.573 309.489 195.318 313.999 194.781C318.51 194.245 322.885 193.24 327.322 192.464C328.838 192.13 330.364 191.901 331.905 191.781C336.468 191.62 340.796 190.307 345.249 189.594C352.166 188.49 358.973 186.709 365.895 185.797C379.64 183.974 393.129 180.854 406.723 178.297C407.26 178.198 407.796 178.115 408.338 178.037C408.796 177.969 409.364 177.86 409.442 178.5C409.51 179.063 408.973 179.292 408.53 179.38C405.327 180.047 402.119 180.682 398.916 181.318C392.275 182.625 385.645 184.011 378.984 185.203C374.864 185.938 370.708 186.516 366.551 187.104C362.4 187.688 358.327 188.74 354.176 189.406C345.739 190.766 337.426 192.828 328.879 193.589C325.02 193.932 321.218 194.88 317.39 195.552C314.484 196.063 311.546 196.459 308.655 197.11C303.655 198.25 298.697 199.526 293.718 200.75C280.952 203.875 268.051 206.386 255.223 209.188C248.218 210.709 241.166 211.781 234.109 212.927C231.01 213.427 227.796 213.511 224.843 214.781C224.989 215.448 225.432 215.24 225.78 215.224C236.838 214.797 247.874 215.182 258.921 215.729C264.426 216 269.958 215.531 275.478 215.573C285.437 215.646 295.379 214.865 305.338 214.927C311.645 214.969 317.942 215.24 324.249 215.146C325.036 215.146 326.405 214.87 326.395 215.906C326.395 217.021 325.062 216.505 324.301 216.531C315.822 216.75 307.343 216.005 298.869 216.412C286.504 217.005 274.124 216.896 261.754 217.146C257.64 217.229 253.515 216.974 249.405 216.714C242.015 216.245 234.624 216.5 227.228 216.542C227.119 216.542 227.004 216.641 226.853 216.714C227.838 217.474 229.062 217.516 230.14 217.781C237.317 219.547 244.421 221.646 251.713 222.839C259.77 224.151 267.77 225.787 275.801 227.261C283.827 228.729 291.9 229.943 299.952 231.266C304.093 231.938 308.312 232.261 312.364 233.318C320.187 235.354 328.182 236.615 335.921 239.078C339.239 240.13 342.801 240.391 346.182 241.224C352.76 242.839 359.499 243.709 366.025 245.459C379.567 249.094 393.379 251.349 407.062 254.281C407.796 254.443 409.124 254.24 408.895 255.38C408.728 256.235 407.541 255.761 406.838 255.63C397.14 253.729 387.395 252.011 377.77 249.776C368.614 247.646 359.458 245.547 350.26 243.584C345.624 242.599 340.905 241.901 336.359 240.604C331.124 239.11 325.848 237.828 320.546 236.646C315.166 235.438 309.838 233.985 304.343 233.287C297.796 232.453 291.265 231.432 284.749 230.37C280.754 229.719 276.822 228.709 272.822 228.089C266.671 227.125 260.619 225.61 254.473 224.672C245.77 223.344 237.322 220.953 228.807 218.823C227.973 218.62 227.135 218.479 226.28 218.396C225.702 218.344 225.093 218.177 224.52 218.396C224.546 218.917 224.926 218.943 225.187 219.037C235.791 222.912 246.01 227.677 256.249 232.406C262.228 235.172 268.463 237.391 274.609 239.792C282.713 242.959 290.879 245.959 298.926 249.219C304.833 251.61 310.551 254.453 316.494 256.781C317.135 257.031 318.416 257.276 318.036 258.151C317.557 259.255 316.577 258.297 315.864 258.021C307.504 254.839 299.593 250.594 291.166 247.61C279.947 243.641 268.952 239.089 257.932 234.615C251.822 232.136 245.952 229.078 239.905 226.432C235.223 224.38 230.426 222.563 225.52 220.969C229.661 224.031 233.807 227.068 237.926 230.151C245.103 235.521 252.796 240.12 260.296 244.99C266.489 249.011 272.557 253.24 278.932 256.995C284.958 260.547 291.093 263.948 296.838 267.927C303.921 272.839 311.202 277.505 317.734 283.167C318.228 283.552 318.739 283.901 319.275 284.229C325.166 288.292 331.077 292.328 336.952 296.417C350.359 305.75 363.619 315.302 377.353 324.151C377.942 324.531 378.494 324.938 379.083 325.344C379.348 325.537 379.572 325.781 379.374 326.104C379.28 326.292 379.14 326.417 378.942 326.474C378.744 326.537 378.557 326.516 378.379 326.412C377.958 326.203 377.557 325.964 377.171 325.698C368.885 320.162 360.562 314.682 352.333 309.057C347.645 305.865 343.291 302.219 338.577 299.052C331.609 294.36 324.52 289.797 317.801 284.792C313.374 281.505 308.984 278.162 304.499 274.953C298.879 270.932 293.275 266.88 287.182 263.557C283.51 261.542 279.994 259.224 276.432 257C266.937 251.063 257.64 244.802 248.192 238.781C242.145 234.932 236.416 230.672 230.645 226.469C227.984 224.531 225.504 222.235 222.307 221.052C222.26 221.641 222.749 221.844 223.067 222.12C231.333 229.698 238.874 237.979 246.515 246.167C252.374 252.417 258.78 258.146 264.859 264.146C269.801 269 275.119 273.422 279.921 278.406C284.348 283.005 288.64 287.729 293.254 292.141C293.588 292.464 293.89 292.818 294.161 293.203C294.395 293.537 294.504 293.938 294.103 294.235C293.708 294.526 293.4 294.292 293.109 293.995C291.405 292.281 289.687 290.594 288.004 288.875C283.098 283.88 278.504 278.584 273.286 273.906C264.369 265.891 255.895 257.417 247.374 248.995C242.843 244.521 238.718 239.651 234.312 235.042C231.077 231.672 227.682 228.469 224.348 225.198C224.051 225.005 223.744 224.844 223.416 224.719C223.994 225.891 224.359 226.797 224.864 227.615C228.447 233.448 231.853 239.396 235.708 245.052C242.166 254.495 248.624 263.948 255.155 273.334C259.687 279.828 264.635 286.037 269.244 292.479C271.687 295.896 273.947 299.453 276.041 303.094C278.02 306.537 280.541 309.641 282.307 313.209C284.666 317.969 287.958 322.141 290.697 326.662C293.926 331.979 297.734 336.948 300.843 342.323C308.067 354.797 316.421 366.526 324.291 378.584C324.624 379.099 325.546 379.771 324.666 380.339C323.879 380.86 323.494 379.865 323.15 379.323C319.286 373.573 315.447 367.802 311.588 362.042C308.859 357.974 306.03 353.959 303.635 349.688C299.864 342.959 295.275 336.766 291.239 330.219C289.02 326.641 286.52 323.25 284.395 319.63C281.463 314.594 278.593 309.521 275.385 304.662C272.598 300.432 270.202 295.964 267.083 291.938C264.708 288.865 262.432 285.709 260.145 282.563C252.228 271.677 244.76 260.479 237.077 249.432C232.989 243.547 229.322 237.427 225.572 231.344C223.874 228.594 222.536 225.557 220.067 223.313Z" fill="#FCB203"/>
<path d="M146.979 340.875C145.812 340.875 145.245 340.188 145.646 339.042C146.286 337.193 147.396 335.573 148.422 333.938C151.323 329.328 154.463 324.896 157.849 320.641C158.015 320.375 158.213 320.141 158.448 319.938C158.828 319.683 159.276 319.407 159.719 319.813C160.099 320.136 159.88 320.521 159.739 320.88C159.536 321.464 159.297 322.037 159.026 322.599C156.401 327.537 153.786 332.479 151.099 337.354C150.427 338.589 149.255 339.443 148.26 340.417C147.896 340.745 147.469 340.901 146.979 340.875Z" fill="#FCB203"/>
<path d="M95.9528 204.198C90.1403 203.885 84.5205 203.115 78.8955 202.484C77.5049 202.328 76.2549 201.604 74.9997 201C74.6195 200.844 74.3382 200.578 74.156 200.214C73.9737 199.844 73.9372 199.464 74.0362 199.068C74.2185 198.172 74.9997 198.104 75.7028 198.162C77.557 198.313 79.4216 198.443 81.2497 198.755C86.6143 199.693 91.906 200.912 97.1351 202.417C97.5049 202.531 97.8539 202.682 98.182 202.88C98.4945 203.052 98.6195 203.318 98.5622 203.667C98.531 203.828 98.4528 203.958 98.3226 204.057C98.1976 204.162 98.0518 204.208 97.8903 204.203C97.1976 204.214 96.4997 204.198 95.9528 204.198Z" fill="#FCB203"/>
<path d="M319.536 272.63C319.666 271.995 320.151 271.943 320.604 272.135C321.885 272.672 323.182 273.219 324.401 273.875C328.515 276.068 332.573 278.354 336.698 280.51C338.218 281.297 339.208 282.562 340.354 283.713C340.515 283.854 340.646 284.026 340.739 284.224C340.838 284.422 340.89 284.63 340.906 284.849C340.916 285.068 340.885 285.281 340.812 285.484C340.739 285.693 340.63 285.875 340.484 286.042C339.937 286.76 339.198 286.463 338.588 286.13C337.01 285.297 335.411 284.479 333.906 283.531C329.302 280.614 324.864 277.474 320.583 274.099C320.073 273.698 319.63 273.312 319.536 272.63Z" fill="#FCB203"/>
<path d="M227.796 95.2137C228.057 90.1876 228.838 84.6512 229.432 79.1043C229.562 77.8334 230.281 76.6199 230.765 75.3907C231.145 74.4012 231.937 73.8699 232.968 74.1251C233.927 74.3647 233.885 75.297 233.817 76.0678C233.64 78.3126 233.296 80.5314 232.927 82.7553C232.099 87.6564 230.776 92.448 229.562 97.2657C229.484 97.7449 229.255 98.1355 228.864 98.4324C228.395 98.7397 227.906 98.7137 227.822 98.0887C227.76 97.1303 227.755 96.172 227.796 95.2137Z" fill="#FCB203"/>
<path d="M124.344 290.677C124.167 291.281 123.656 291.672 123.208 292.068C120.875 294.109 118.557 296.156 116.167 298.12C114.265 299.693 112.156 301.047 110.312 302.677C108.979 303.87 107.349 304.302 105.818 305.01C105.375 305.229 104.922 305.234 104.469 305.031C103.307 304.536 103.042 303.599 104.031 302.651C105.323 301.437 106.698 300.318 108.151 299.302C112.719 296.089 117.443 293.109 122.312 290.375C122.698 290.089 123.13 289.943 123.614 289.938C124.021 289.974 124.354 290.146 124.344 290.677Z" fill="#FCB203"/>
<path d="M290.698 307.662C291.188 307.87 291.594 308.188 291.906 308.62C293.99 311.032 296.083 313.407 298.13 315.839C299.766 317.818 301.224 319.933 302.885 321.881C303.99 323.183 304.375 324.756 305.01 326.245C305.286 326.891 305.089 327.438 304.677 327.969C304.214 328.563 303.677 328.73 303.073 328.266C302.563 327.907 302.109 327.485 301.719 327C298.094 322.136 294.5 317.256 291.74 311.802C291.323 311.058 290.865 310.334 290.359 309.641C290.005 309.193 289.875 308.688 289.979 308.125C290.005 307.953 290.089 307.823 290.234 307.73C290.38 307.636 290.531 307.615 290.698 307.662Z" fill="#FCB203"/>
<path d="M81.8119 256.109C81.1921 256.109 80.5723 256.146 79.9577 256.109C79.5514 256.083 79.1973 255.938 78.8952 255.667C78.5931 255.396 78.4056 255.063 78.3431 254.662C78.1348 253.781 78.8587 253.386 79.5098 253.177C81.4056 252.578 83.3587 251.995 85.3119 251.542C90.4473 250.365 95.6504 249.573 100.89 248.901C101.192 248.833 101.499 248.813 101.812 248.833C102.265 248.912 102.749 249.073 102.807 249.63C102.854 250.115 102.39 250.271 102.067 250.391C100.994 250.833 99.916 251.276 98.8066 251.615C93.9994 253.078 89.1816 254.505 84.3691 255.958C83.5098 256.219 82.6608 256.094 81.8119 256.109Z" fill="#FCB203"/>
<path d="M256.088 350.094C256.088 350.641 256.109 351.188 256.088 351.724C256.036 352.693 255.526 353.406 254.599 353.578C253.671 353.75 253.244 352.948 253.015 352.193C252.5 350.484 251.994 348.771 251.588 347.036C250.411 341.802 249.5 336.526 248.864 331.198C248.864 331.047 248.817 330.891 248.807 330.734C248.765 330.099 248.734 329.37 249.484 329.193C250.234 329.01 250.359 329.771 250.52 330.234C251.614 333.464 252.708 336.693 253.718 339.953C254.401 342.177 254.859 344.469 255.588 346.677C255.968 347.786 256.135 348.922 256.088 350.094Z" fill="#FCB203"/>
<path d="M183.072 101.927C183.119 101.604 183.119 101.844 183.046 102.058C182.926 102.422 182.812 102.818 182.312 102.839C181.952 102.839 181.723 102.662 181.63 102.308C181.14 101.084 180.588 99.8752 180.213 98.6148C178.874 94.1617 177.676 89.6669 176.26 85.2346C175.718 83.5263 175.88 81.8596 175.859 80.1669C175.843 79.9482 175.869 79.7346 175.937 79.5263C176.01 79.318 176.114 79.1305 176.26 78.969C176.406 78.8023 176.583 78.6773 176.781 78.5784C176.979 78.4846 177.187 78.4377 177.406 78.4273C178.239 78.3284 178.577 79.0315 178.822 79.719C179.604 82.0732 180.234 84.469 180.723 86.9065C181.791 91.87 182.572 96.8752 183.072 101.927Z" fill="#FCB203"/>
<path d="M350.224 175.823C350.859 175.823 351.495 175.86 352.125 175.938C352.484 175.99 352.797 176.146 353.052 176.407C353.312 176.662 353.469 176.974 353.526 177.334C353.713 178.224 353.052 178.631 352.385 178.854C350.614 179.422 348.838 179.995 347.031 180.401C341.708 181.599 336.364 182.427 330.979 183.136C330.672 183.188 330.364 183.203 330.057 183.172C329.614 183.162 329.323 182.943 329.177 182.526C329.062 182.068 329.401 181.808 329.781 181.662C331.005 181.183 332.224 180.657 333.479 180.276C338.146 178.849 342.828 177.485 347.5 176.068C348.338 175.797 349.182 175.896 350.224 175.823Z" fill="#FCB203"/>
<path d="M92.5053 145.552C93.0626 145.729 93.6043 145.948 94.1303 146.209C99.2241 149.198 104.245 152.308 108.813 156.089C109.537 156.683 110.307 157.198 111.057 157.745C111.443 158.011 111.787 158.313 112.094 158.667C112.234 158.813 112.307 158.99 112.323 159.193C112.333 159.391 112.276 159.578 112.156 159.74C111.906 160 111.625 160.052 111.302 159.881C110.708 159.703 110.13 159.479 109.568 159.209C104.568 156.552 99.5678 153.912 94.6043 151.183C93.3126 150.474 92.3907 149.25 91.4064 148.141C90.8595 147.542 90.9585 146.849 91.2449 146.172C91.4532 145.683 91.8907 145.547 92.5053 145.552Z" fill="#FCB203"/>
<path d="M308.062 142.031C307.541 141.938 307.302 141.443 307.771 140.932C308.776 139.859 309.843 138.849 310.979 137.917C314.567 134.969 318.239 132.13 321.786 129.135C323.083 128.031 324.651 127.651 326.104 126.969C327.041 126.526 327.828 126.927 328.307 127.729C328.75 128.453 328.265 129.078 327.718 129.542C326.411 130.609 325.12 131.75 323.755 132.719C319.177 135.922 314.448 138.896 309.573 141.625C309.125 141.964 308.62 142.099 308.062 142.031Z" fill="#FCB203"/>
<path d="M142.015 123.443C141.984 123.906 141.9 124.203 141.567 124.328C141.229 124.448 140.953 124.37 140.739 124.078C139.828 123.135 138.859 122.234 138.025 121.224C134.942 117.464 131.88 113.682 128.838 109.88C127.854 108.651 127.421 107.141 126.88 105.698C126.562 104.865 126.947 104.161 127.619 103.667C128.38 103.099 128.989 103.703 129.416 104.193C130.598 105.521 131.713 106.906 132.755 108.349C135.927 112.844 138.848 117.495 141.525 122.297C141.729 122.703 141.885 123.135 142.015 123.443Z" fill="#FCB203"/>
<path d="M204.151 335.937C203.828 340.823 203.219 345.984 202.661 351.156C202.495 352.859 202.073 354.5 201.396 356.073C201.182 356.573 200.901 357.031 200.547 357.448C200.333 357.687 200.068 357.849 199.75 357.922C199.437 358 199.13 357.984 198.828 357.875C198.562 357.766 198.354 357.583 198.213 357.333C198.073 357.083 198.021 356.812 198.068 356.526C198.125 354.896 198.271 353.276 198.51 351.661C199.474 345.984 200.75 340.38 202.333 334.849C202.401 334.547 202.505 334.25 202.635 333.969C202.828 333.63 203.099 333.297 203.536 333.354C203.974 333.417 204.109 333.833 204.125 334.234C204.167 334.698 204.151 335.167 204.151 335.937Z" fill="#FCB203"/>
<path d="M272.672 112.391C272.193 112.391 271.911 112.109 272.036 111.656C272.271 110.833 272.578 110.042 272.953 109.276C275.526 104.417 278.109 99.552 280.755 94.7239C281.464 93.4218 282.677 92.5 283.771 91.5104C284.073 91.2343 284.427 91.0833 284.839 91.0625C285.25 91.0416 285.62 91.1562 285.943 91.4062C286.62 91.875 286.458 92.6875 286.12 93.3229C285.208 95.0312 284.302 96.7448 283.271 98.3906C280.448 102.859 277.349 107.13 274.104 111.312C273.708 111.807 273.359 112.307 272.672 112.391Z" fill="#FCB203"/>
<path d="M335.651 227.734C339.865 228.162 344.276 228.396 348.656 229.031C351.099 229.385 353.594 229.339 355.875 230.49C356.297 230.682 356.714 230.891 357.115 231.12C357.417 231.323 357.63 231.594 357.755 231.932C357.885 232.276 357.901 232.62 357.802 232.969C357.656 233.755 356.984 233.828 356.354 233.833C354.255 233.797 352.177 233.568 350.12 233.146C344.995 232.255 339.943 231.078 334.948 229.62C334.802 229.578 334.641 229.578 334.495 229.531C333.87 229.349 333.224 229.057 333.385 228.302C333.531 227.625 334.25 227.792 334.766 227.74C335.005 227.714 335.24 227.734 335.651 227.734Z" fill="#FCB203"/>
<path d="M142.697 155.521C142.702 155.708 142.635 155.859 142.499 155.99C142.364 156.115 142.202 156.167 142.02 156.146C141.708 156.125 141.421 156.037 141.156 155.875C135.614 152.333 129.807 149.177 124.885 144.74C124.359 144.281 123.869 143.781 123.421 143.25C122.958 142.667 122.307 142.083 123.041 141.229C123.775 140.375 124.426 140.422 125.244 141.063C126.645 142.162 128.135 143.146 129.484 144.307C132.551 146.906 135.755 149.328 139.098 151.568C140.39 152.448 141.265 153.761 142.406 154.797C142.635 154.984 142.734 155.224 142.697 155.521Z" fill="#FCB203"/>
<path d="M242.875 123.979C243.536 119.453 244.395 114.964 245.27 110.485C245.739 108.203 246.406 105.985 247.27 103.823C247.468 103.318 247.697 102.834 247.953 102.36C248.333 101.682 248.791 101.281 249.645 101.646C250.406 101.969 250.765 102.438 250.552 103.266C250.114 104.99 249.76 106.745 249.197 108.427C247.875 112.391 246.953 116.453 245.979 120.511C245.661 121.844 244.984 123.099 244.458 124.386C244.281 124.818 244.078 125.328 243.51 125.235C242.822 125.12 242.791 124.526 242.875 123.979Z" fill="#FCB203"/>
<path d="M261.015 299.542C261.442 299.563 261.77 299.756 262.004 300.11C265.9 305.719 270.265 311.026 273.088 317.323C273.296 317.818 273.478 318.323 273.635 318.844C273.864 319.542 273.973 320.214 273.119 320.625C272.27 321.042 271.723 320.891 271.15 320.094C270.213 318.756 269.39 317.349 268.682 315.881C266.739 311.985 264.406 308.334 262.176 304.615C261.416 303.37 260.999 301.933 260.468 300.558C260.411 300.459 260.379 300.349 260.379 300.229C260.374 300.11 260.406 300 260.458 299.896C260.515 299.792 260.593 299.709 260.692 299.646C260.791 299.584 260.9 299.547 261.015 299.542Z" fill="#FCB203"/>
<path d="M308.057 242.953C312.526 243.578 316.948 244.427 321.354 245.307C324.031 245.833 326.62 246.641 329.12 247.729C329.724 247.995 330.469 248.281 330.453 249.177C330.438 250.073 329.74 250.677 328.74 250.563C327.427 250.38 326.146 250.068 324.901 249.625C320.396 248.162 315.807 246.995 311.188 245.979C309.875 245.688 308.802 244.875 307.542 244.49C307.068 244.349 306.609 244.109 306.729 243.537C306.901 242.839 307.5 242.875 308.057 242.953Z" fill="#FCB203"/>
<path d="M291.395 124.115C291.359 124.599 291.177 125.021 290.843 125.375C289.77 126.802 288.734 128.25 287.583 129.61C285.036 132.636 282.651 135.787 280.437 139.063C279.645 140.235 278.505 141.063 277.531 142.058C277.125 142.48 276.671 143.198 276.01 142.563C275.463 142.032 275.927 141.422 276.265 140.891C276.885 139.901 277.458 138.886 278.093 137.917C281.135 133.235 283.848 128.313 287.838 124.302C288.286 123.756 288.822 123.318 289.442 122.98C290.203 122.657 291.322 123.339 291.395 124.115Z" fill="#FCB203"/>
<path d="M224.672 313.282C224.672 312.594 224.672 312.052 224.672 311.511C224.672 310.974 224.755 310.5 225.291 310.412C225.968 310.302 226.224 310.839 226.333 311.412C226.656 313.094 227.224 314.724 227.552 316.386C228.385 320.657 229.526 324.875 229.869 329.235C229.979 330.469 230 331.714 229.927 332.953C229.88 333.714 229.692 334.516 228.609 334.558C227.593 334.604 227.317 334.016 227.088 333.172C226.698 331.505 226.468 329.813 226.401 328.099C226.146 323.985 225.406 319.953 224.718 315.901C224.588 315.005 224.343 314.063 224.672 313.282Z" fill="#FCB203"/>
<path d="M101.359 229.922C100.427 229.922 99.4943 229.974 98.5672 229.922C97.7391 229.86 97.3589 229.339 97.3797 228.495C97.4006 227.735 97.7599 227.412 98.4631 227.214C100.203 226.781 101.973 226.526 103.765 226.453C108.026 226.141 112.234 225.479 116.437 224.766C117.838 224.531 119.218 224.854 120.619 224.766C121 224.745 121.442 224.766 121.541 225.266C121.651 225.839 121.296 226.141 120.802 226.266C119.458 226.62 118.098 226.974 116.734 227.281C112.177 228.313 107.64 229.339 103.005 229.896C102.463 229.964 101.916 229.948 101.375 229.974L101.359 229.922Z" fill="#FCB203"/>
<path d="M170.948 132.505C170.49 132.458 170.13 132.245 169.875 131.859C166.073 126.396 161.86 121.198 159.016 115.12C158.74 114.563 158.505 113.984 158.313 113.396C158.094 112.661 157.818 111.875 158.771 111.375C159.729 110.875 160.375 111.208 160.875 112.089C161.719 113.568 162.688 114.979 163.443 116.5C165.297 120.151 167.36 123.688 169.63 127.099C170.521 128.474 170.865 130.089 171.526 131.568C171.729 132.073 171.328 132.401 170.948 132.505Z" fill="#FCB203"/>
<path d="M103.062 181.365C104.057 181.537 105.042 181.761 106.01 182.031C110.776 183.63 115.635 184.865 120.536 185.995C121.943 186.318 123.266 187.042 124.615 187.61C124.995 187.761 125.318 188.063 125.203 188.49C125.125 188.724 124.979 188.901 124.766 189.021C124.552 189.146 124.328 189.177 124.089 189.12C122.568 188.917 121.026 188.662 119.526 188.38C114.432 187.448 109.271 186.792 104.37 184.964C103.651 184.677 102.953 184.349 102.266 183.985C102.099 183.922 101.953 183.828 101.828 183.703C101.703 183.578 101.609 183.433 101.547 183.266C101.49 183.099 101.464 182.927 101.474 182.75C101.49 182.573 101.536 182.406 101.625 182.25C101.714 181.938 101.896 181.698 102.172 181.526C102.448 181.354 102.745 181.302 103.062 181.365Z" fill="#FCB203"/>
<path d="M290.026 275.823C290.266 275.886 290.495 275.974 290.708 276.099C296.365 279.745 302.354 282.938 307.323 287.568C307.885 288.104 308.401 288.677 308.865 289.297C309.307 289.87 309.182 290.412 308.661 290.948C308.141 291.479 307.641 291.578 307.016 291.183C305.776 290.391 304.599 289.511 303.479 288.552C299.948 285.537 296.214 282.797 292.458 280.089C291.292 279.245 290.339 278.073 289.354 276.99C288.885 276.506 289.214 275.849 290.026 275.823Z" fill="#FCB203"/>
<path d="M300.244 171.641C299.963 171.505 299.703 171.458 299.573 171.297C299.474 171.172 299.422 171.026 299.432 170.865C299.437 170.703 299.494 170.568 299.609 170.448C299.739 170.255 299.901 170.089 300.083 169.948C305.479 166.182 310.619 162.031 316.604 159.172C317.156 158.891 317.724 158.646 318.312 158.448C319.177 158.193 320.114 157.714 320.666 159C321.14 160.089 320.468 160.573 319.703 161.026C318.307 161.859 316.953 162.781 315.494 163.479C311.786 165.26 308.338 167.469 304.854 169.656C303.422 170.568 301.739 170.911 300.244 171.641Z" fill="#FCB203"/>
<path d="M330.687 202.011C331.448 202.011 332.244 201.964 333.015 202.011C333.864 202.078 334.484 202.412 334.474 203.453C334.474 204.323 334.01 204.589 333.224 204.818C331.484 205.235 329.718 205.485 327.932 205.563C323.828 205.865 319.776 206.505 315.734 207.208C314.177 207.479 312.651 207.146 311.114 207.208C310.906 207.24 310.729 207.188 310.573 207.052C310.421 206.912 310.349 206.745 310.354 206.537C310.359 206.333 310.427 206.156 310.562 206C310.692 205.849 310.859 205.75 311.057 205.714C312.411 205.38 313.765 205.031 315.13 204.729C320.26 203.583 325.39 202.318 330.687 202.011Z" fill="#FCB203"/>
<path d="M207.161 118.828C207.161 119.484 207.187 120.26 207.161 121.031C207.161 121.203 206.916 121.412 206.734 121.51C206.588 121.583 206.437 121.594 206.281 121.552C206.125 121.505 206 121.417 205.911 121.281C205.713 120.943 205.567 120.589 205.489 120.203C204.239 115.162 203.14 110.073 202.26 104.953C201.932 103.052 202.026 101.083 202.005 99.1459C202.005 98.3907 202.083 97.5521 203.172 97.448C204.265 97.349 204.724 97.8959 204.849 98.9063C205.052 100.604 205.38 102.281 205.515 103.979C205.854 108.068 206.448 112.125 207.161 116.167C207.375 117.052 207.375 117.943 207.161 118.828Z" fill="#FCB203"/>
<path d="M141.964 309.183C141.011 309.203 140.266 307.901 140.776 307.032C141.802 305.292 143.13 303.771 144.432 302.24C146.917 299.276 149.245 296.198 151.412 292.995C152.354 291.636 153.672 290.667 154.797 289.505C154.917 289.344 155.078 289.25 155.281 289.219C155.485 289.188 155.667 289.229 155.833 289.344C156.307 289.693 156.188 290.162 155.932 290.584C155.255 291.719 154.568 292.828 153.854 293.938C150.813 298.693 148.011 303.641 144.021 307.724C143.417 308.36 142.828 308.969 141.964 309.183Z" fill="#FCB203"/>
<path d="M189.036 308.078C188.546 310.943 188.098 314.016 187.494 317.057C186.77 320.708 186.265 324.427 184.76 327.885C184.515 328.458 184.27 329.026 184 329.578C183.651 330.255 183.182 330.719 182.317 330.365C181.557 330.062 181.286 329.578 181.395 328.745C181.692 326.896 182.161 325.099 182.802 323.344C184.01 319.578 185.005 315.755 185.786 311.875C186.119 310.266 187.026 308.891 187.572 307.365C187.614 307.167 187.723 307.01 187.89 306.891C188.057 306.776 188.244 306.734 188.447 306.76C189.036 306.88 189 307.406 189.036 308.078Z" fill="#FCB203"/>
<path d="M132.421 260.985C132.416 261.453 132.213 261.807 131.817 262.057C126.359 265.86 121.156 270.068 115.103 272.932C114.395 273.25 113.671 273.521 112.932 273.755C112.171 274.016 111.63 273.792 111.249 272.995C110.869 272.203 111.14 271.719 111.786 271.24C113.312 270.172 114.916 269.24 116.603 268.443C120.182 266.604 123.65 264.573 127.01 262.365C128.385 261.479 129.978 261.099 131.468 260.464C131.567 260.417 131.666 260.396 131.775 260.396C131.885 260.401 131.984 260.427 132.077 260.479C132.171 260.531 132.249 260.599 132.312 260.688C132.369 260.776 132.406 260.875 132.421 260.985Z" fill="#FCB203"/>
<path d="M101.588 82.3544C101.588 83.4533 100.744 84.4064 99.7913 84.4116C98.9059 84.4116 97.9215 83.3596 97.8955 82.3908C97.8955 81.2189 98.5986 80.4637 99.734 80.4585C100.875 80.4533 101.604 81.1669 101.588 82.3544Z" fill="#FCB203"/>
<path d="M50.0412 272.292C50.0673 273.177 49.2183 273.969 48.1975 274.021C47.1766 274.068 46.0673 273.214 46.0464 272.313C46.0204 271.287 46.9423 270.245 47.8641 270.255C48.9266 270.271 50.0152 271.297 50.0412 272.292Z" fill="#FCB203"/>
<path d="M41.2076 203.776C41.2337 204.854 40.6243 205.49 39.5097 205.531C38.3951 205.578 37.3326 204.594 37.3691 203.563C37.4003 202.734 38.3535 201.714 39.1451 201.661C40.067 201.578 41.1868 202.729 41.2076 203.776Z" fill="#FCB203"/>
<path d="M392.526 226.474C393.494 226.505 394.541 227.448 394.578 228.333C394.619 229.219 393.494 230.344 392.63 230.344C391.661 230.344 390.656 229.203 390.692 228.104C390.729 227 391.385 226.448 392.526 226.474Z" fill="#FCB203"/>
<path d="M294.854 59.4169C293.843 59.4169 292.952 58.6356 292.932 57.7554C292.952 57.4846 293.02 57.2242 293.135 56.9742C293.249 56.7294 293.4 56.5054 293.593 56.3127C293.791 56.12 294.01 55.9689 294.26 55.8544C294.505 55.7398 294.77 55.6773 295.041 55.6564C296.025 55.6044 296.874 56.5054 296.9 57.62C296.916 58.5471 295.926 59.4221 294.854 59.4169Z" fill="#FCB203"/>
<path d="M333.895 349.969C333.755 351.105 332.958 351.677 331.77 351.485C331.515 351.448 331.286 351.36 331.067 351.224C330.854 351.084 330.671 350.912 330.531 350.704C330.385 350.49 330.291 350.261 330.239 350.011C330.192 349.761 330.197 349.511 330.25 349.261C330.411 348.344 331.39 347.516 332.208 347.589C333.25 347.683 334.041 348.808 333.895 349.969Z" fill="#FCB203"/>
<path d="M351.49 99.8804C351.458 101.021 350.688 101.703 349.521 101.677C348.479 101.646 347.479 100.719 347.51 99.8075C347.542 98.896 348.589 98.0366 349.599 98.0366C350.818 98.0366 351.537 98.7397 351.49 99.8804Z" fill="#FCB203"/>
<path d="M159.614 50.0575C159.38 50.047 159.161 49.995 158.948 49.896C158.734 49.797 158.547 49.6616 158.385 49.495C158.224 49.3231 158.104 49.1304 158.016 48.9116C157.932 48.6929 157.891 48.4689 157.891 48.2345C157.859 47.1512 158.687 46.1877 159.667 46.1772C160.76 46.1772 161.734 47.0158 161.708 47.9637C161.693 48.2345 161.63 48.495 161.516 48.745C161.406 48.995 161.255 49.2189 161.062 49.4116C160.87 49.6043 160.646 49.7554 160.401 49.87C160.151 49.9793 159.891 50.0418 159.614 50.0575Z" fill="#FCB203"/>
<path d="M274.005 383.922C274.005 384.172 273.953 384.417 273.854 384.646C273.755 384.875 273.614 385.078 273.432 385.255C273.255 385.432 273.046 385.568 272.812 385.662C272.583 385.75 272.338 385.797 272.088 385.797C271.854 385.797 271.63 385.75 271.416 385.667C271.197 385.578 271.005 385.458 270.833 385.297C270.666 385.141 270.531 384.958 270.427 384.75C270.328 384.537 270.265 384.318 270.249 384.083C270.223 382.875 271.312 381.807 272.453 381.922C273.302 382 274.041 382.953 274.005 383.922Z" fill="#FCB203"/>
<path d="M138.906 374.438C138.869 374.703 138.791 374.959 138.661 375.198C138.531 375.438 138.359 375.646 138.156 375.823C137.947 375.995 137.713 376.131 137.458 376.219C137.197 376.308 136.937 376.344 136.661 376.334C135.708 376.276 134.932 375.25 135.036 374.172C135.13 373.23 136.176 372.48 137.244 372.594C138.312 372.714 139.01 373.5 138.906 374.438Z" fill="#FCB203"/>
<path d="M376.349 295.177C376.349 296.115 375.359 296.943 374.266 296.906C373.313 296.875 372.531 295.901 372.578 294.807C372.63 293.713 373.339 292.995 374.313 293.036C374.583 293.062 374.844 293.13 375.089 293.25C375.333 293.365 375.552 293.521 375.74 293.719C375.927 293.917 376.073 294.141 376.177 294.391C376.281 294.646 376.339 294.906 376.349 295.177Z" fill="#FCB203"/>
<path d="M203.661 390.745C204.802 390.693 205.359 391.203 205.411 392.375C205.463 393.552 204.599 394.568 203.542 394.563C203.073 394.505 202.661 394.318 202.307 394C201.958 393.682 201.729 393.292 201.625 392.833C201.51 391.865 202.552 390.797 203.661 390.745Z" fill="#FCB203"/>
<path d="M228.343 37.4219C228.593 37.4479 228.833 37.5104 229.062 37.6198C229.286 37.7292 229.489 37.875 229.661 38.0573C229.838 38.2396 229.974 38.4479 230.073 38.6771C230.177 38.9063 230.229 39.151 230.245 39.401C230.192 40.3437 229.245 41.2031 228.213 41.2396C227.073 41.276 226.479 40.7344 226.432 39.6094C226.39 38.4844 227.317 37.4271 228.343 37.4219Z" fill="#FCB203"/>
<path d="M383.895 157.964C385.01 158.016 385.854 158.86 385.796 159.865C385.713 161.006 384.859 161.808 383.859 161.703C383.588 161.677 383.333 161.599 383.093 161.479C382.848 161.354 382.64 161.193 382.458 160.99C382.281 160.787 382.14 160.558 382.052 160.302C381.958 160.047 381.911 159.782 381.921 159.511C381.979 158.662 382.916 157.933 383.895 157.964Z" fill="#FCB203"/>
<path d="M57.7605 138.969C57.4844 138.979 57.2188 138.943 56.9636 138.849C56.7032 138.755 56.474 138.615 56.2709 138.427C56.073 138.24 55.9167 138.021 55.8021 137.771C55.6876 137.521 55.6303 137.261 55.6199 136.99C55.5469 135.959 56.3438 135.151 57.4949 135.089C58.4532 135.047 59.3334 135.953 59.3699 137.026C59.3803 137.261 59.349 137.485 59.2761 137.709C59.2032 137.927 59.0938 138.13 58.9428 138.308C58.7917 138.49 58.6199 138.636 58.4115 138.75C58.2084 138.865 57.9896 138.938 57.7605 138.969Z" fill="#FCB203"/>
<path d="M84.312 332.078C84.3068 332.328 84.2548 332.573 84.1558 332.802C84.0568 333.031 83.9162 333.24 83.7391 333.417C83.5568 333.594 83.3537 333.729 83.1193 333.828C82.8902 333.922 82.6454 333.974 82.3954 333.979C81.1506 334.026 80.4787 333.432 80.4475 332.24C80.4162 331.052 81.01 330.386 82.2391 330.365C83.3433 330.344 84.2756 331.115 84.312 332.078Z" fill="#FCB203"/>
<path d="M103.489 111.011C104.63 110.964 105.291 111.526 105.281 112.417C105.281 113.365 104.437 114.349 103.666 114.318C103.036 114.287 102.145 113.255 102.187 112.495C102.176 112.313 102.202 112.13 102.26 111.958C102.322 111.781 102.411 111.625 102.531 111.484C102.656 111.344 102.796 111.234 102.963 111.151C103.13 111.073 103.307 111.021 103.489 111.011Z" fill="#FCB203"/>
<path d="M27.9423 318.302C27.9058 319.063 26.8485 319.979 26.0048 319.922C25.1662 319.86 24.8694 319.328 24.911 318.505C24.9944 317.281 25.5829 316.49 26.4006 316.552C26.8225 316.641 27.1767 316.849 27.4631 317.172C27.7496 317.495 27.9058 317.87 27.9423 318.302Z" fill="#FCB203"/>
<path d="M259.041 362.443C259.036 362.625 258.989 362.807 258.906 362.974C258.823 363.141 258.708 363.281 258.562 363.401C258.416 363.516 258.25 363.599 258.067 363.646C257.89 363.688 257.703 363.693 257.52 363.661C256.531 363.599 255.885 362.943 255.927 362.068C255.927 361.854 255.968 361.651 256.057 361.458C256.14 361.26 256.26 361.094 256.416 360.948C256.573 360.802 256.75 360.698 256.953 360.625C257.151 360.557 257.359 360.531 257.573 360.547C258.015 360.635 258.38 360.859 258.661 361.219C258.937 361.578 259.067 361.984 259.041 362.443Z" fill="#FCB203"/>
<path d="M65.0255 222.5C64.9682 223.219 64.6453 223.771 63.7651 223.782C62.7182 223.782 61.8172 223.021 61.8641 222.136C61.937 221.709 62.1401 221.344 62.463 221.052C62.7911 220.761 63.1713 220.599 63.6088 220.573C64.3536 220.615 65.0463 221.511 65.0255 222.5Z" fill="#FCB203"/>
<path d="M223.713 368.115C223.749 369.13 222.984 370.094 222.13 370.094C221.437 370.094 220.463 369.099 220.463 368.396C220.463 367.688 221.385 366.958 222.301 366.932C223.223 366.906 223.682 367.313 223.713 368.115Z" fill="#FCB203"/>
<path d="M49.146 78.5576C50.0366 78.5576 50.5054 78.9587 50.547 79.7972C50.5575 80.0107 50.521 80.2191 50.4429 80.4222C50.37 80.6253 50.2606 80.8024 50.1148 80.9587C49.9689 81.1201 49.797 81.2399 49.5991 81.3337C49.4064 81.4222 49.2033 81.4743 48.9845 81.4847C48.0835 81.4847 47.0002 80.5107 47.1616 79.7451C47.3908 78.6722 48.3648 78.7087 49.146 78.5576Z" fill="#FCB203"/>
<path d="M318.109 403.99C318.911 403.927 319.828 404.891 319.864 405.828C319.896 406.609 319.458 406.969 318.75 407.037C317.692 407.13 316.619 406.479 316.552 405.745C316.562 405.302 316.713 404.917 317.01 404.583C317.302 404.25 317.666 404.052 318.109 403.99Z" fill="#FCB203"/>
<path d="M64.8856 199.98C64.5106 199.985 64.1824 199.87 63.9012 199.62C63.6199 199.375 63.4533 199.063 63.4116 198.693C63.2762 198 64.1408 196.969 64.8595 196.881C65.2918 196.865 65.672 197 66.0053 197.276C66.3387 197.552 66.5366 197.907 66.5991 198.339C66.6408 199.219 65.9689 199.927 64.8856 199.98Z" fill="#FCB203"/>
<path d="M153.473 77.2866C153.546 78.1408 152.661 79.0835 151.749 79.1252C150.692 79.172 150.458 78.4429 150.385 77.6252C150.348 77.4272 150.353 77.2345 150.395 77.0418C150.437 76.8491 150.515 76.672 150.635 76.5106C150.749 76.3491 150.89 76.2189 151.057 76.1147C151.228 76.0106 151.411 75.9481 151.609 75.9168C152.359 75.745 153.416 76.5575 153.473 77.2866Z" fill="#FCB203"/>
<path d="M141.984 350.339C141.255 350.339 140.437 349.453 140.406 348.63C140.38 347.896 141.296 347.016 142.099 347.109C142.296 347.115 142.479 347.162 142.656 347.24C142.833 347.323 142.989 347.432 143.119 347.578C143.255 347.719 143.354 347.88 143.421 348.063C143.489 348.245 143.52 348.432 143.515 348.63C143.515 348.844 143.484 349.047 143.406 349.245C143.333 349.448 143.224 349.625 143.083 349.781C142.942 349.943 142.776 350.068 142.583 350.167C142.395 350.26 142.192 350.318 141.984 350.339Z" fill="#FCB203"/>
<path d="M354.531 153.563C353.687 153.516 352.734 152.5 352.797 151.667C352.875 150.636 353.656 150.479 354.474 150.474C355.484 150.474 356.151 151.162 356.042 152.052C355.937 152.823 355.161 153.604 354.531 153.563Z" fill="#FCB203"/>
<path d="M74.2397 163.516C74.0991 164.193 73.9168 164.969 72.922 165.036C72.0522 165.094 71.1043 164.109 71.1355 163.245C71.1564 163.031 71.2136 162.828 71.3178 162.635C71.422 162.448 71.5522 162.281 71.7241 162.146C71.8907 162.01 72.0782 161.911 72.2814 161.849C72.4897 161.792 72.7032 161.771 72.9168 161.792C73.672 161.823 74.2293 162.521 74.2397 163.516Z" fill="#FCB203"/>
<path d="M165.021 358.891C165.052 359.756 164.057 360.792 163.281 360.823C162.432 360.849 161.818 360.167 161.761 359.167C161.75 358.953 161.787 358.75 161.87 358.558C161.948 358.36 162.068 358.193 162.224 358.052C162.38 357.907 162.557 357.808 162.761 357.745C162.964 357.683 163.167 357.662 163.38 357.693C164.198 357.75 164.844 358.099 165.021 358.891Z" fill="#FCB203"/>
<mask id="mask0_194_265" style="mask-type:luminance" maskUnits="userSpaceOnUse" x="236" y="428" width="5" height="4">
<path d="M236.203 428.427H240.203V432H236.203V428.427Z" fill="white"/>
</mask>
<g mask="url(#mask0_194_265)">
<path d="M239.406 430.584C239.343 431.344 239.109 431.953 238.192 431.901C237.276 431.849 236.093 430.714 236.208 430C236.359 429.104 237.02 428.75 237.849 428.709C238.75 428.683 239.437 429.532 239.406 430.584Z" fill="#FCB203"/>
</g>
<path d="M297.869 115.964C297.937 116.792 297.026 117.745 296.114 117.714C295.916 117.724 295.729 117.693 295.547 117.62C295.364 117.552 295.203 117.448 295.067 117.307C294.927 117.172 294.823 117.011 294.755 116.828C294.682 116.646 294.651 116.459 294.661 116.266C294.63 115.188 295.521 114.901 296.323 114.682C297.125 114.459 297.802 115.146 297.869 115.964Z" fill="#FCB203"/>
<path d="M153.995 420.755C155.047 420.787 155.766 421.485 155.687 422.401C155.625 423.203 155.38 423.964 154.401 424.063C153.693 424.13 152.5 422.714 152.604 421.933C152.646 421.584 152.802 421.297 153.068 421.073C153.338 420.844 153.646 420.74 153.995 420.755Z" fill="#FCB203"/>
<path d="M9.8278 152.677C9.99967 152.672 10.1715 152.703 10.333 152.766C10.4945 152.828 10.6403 152.922 10.7653 153.047C10.8903 153.172 10.984 153.313 11.0518 153.474C11.1195 153.636 11.1507 153.808 11.1507 153.985C11.182 154.193 11.1663 154.406 11.1038 154.61C11.0465 154.818 10.9476 155 10.807 155.167C10.6715 155.334 10.5049 155.459 10.3122 155.552C10.1195 155.651 9.91634 155.698 9.69759 155.709C8.7028 155.766 7.80176 155.146 7.80176 154.417C7.81738 153.802 9.04134 152.735 9.8278 152.677Z" fill="#FCB203"/>
<path d="M311.869 335.344C311.802 336.146 311.255 336.542 310.354 336.583C310.14 336.615 309.932 336.599 309.729 336.542C309.526 336.479 309.343 336.38 309.182 336.24C309.021 336.099 308.896 335.932 308.807 335.74C308.718 335.547 308.677 335.344 308.677 335.13C308.666 334.917 308.698 334.714 308.771 334.51C308.843 334.312 308.958 334.135 309.109 333.984C309.255 333.833 309.432 333.724 309.63 333.646C309.828 333.568 310.031 333.536 310.244 333.547C310.698 333.609 311.078 333.812 311.385 334.151C311.692 334.49 311.854 334.891 311.869 335.344Z" fill="#FCB203"/>
<path d="M154.208 101.974C155.214 101.912 155.865 102.589 155.875 103.615C155.875 104.495 155.526 105.13 154.557 105.203C153.656 105.281 153.016 104.61 153.016 103.573C153.016 102.703 153.349 102.058 154.208 101.974Z" fill="#FCB203"/>
<path d="M137.197 315.641C137.265 316.469 136.328 317.354 135.364 317.354C134.473 317.354 134.135 316.75 134.02 316.016C133.906 315.281 134.749 314.417 135.624 314.292C135.817 314.271 136.01 314.292 136.197 314.349C136.385 314.406 136.551 314.5 136.703 314.625C136.848 314.755 136.968 314.906 137.057 315.083C137.14 315.26 137.187 315.448 137.197 315.641Z" fill="#FCB203"/>
<path d="M336.583 121.771C336.583 121.984 336.541 122.193 336.458 122.385C336.369 122.583 336.25 122.755 336.088 122.901C335.932 123.042 335.75 123.151 335.546 123.219C335.343 123.286 335.135 123.313 334.921 123.292C334.005 123.224 333.562 122.625 333.505 121.771C333.458 120.99 334.312 120.172 335.119 120.13C336.015 120.083 336.614 120.755 336.583 121.771Z" fill="#FCB203"/>
<path d="M348.38 288.448C349.479 288.448 350.26 289.115 350.281 289.938C350.281 290.677 349.432 291.511 348.62 291.542C347.901 291.573 346.968 290.631 347.062 289.86C347.078 289.495 347.208 289.177 347.458 288.907C347.708 288.641 348.015 288.485 348.38 288.448Z" fill="#FCB203"/>
<path d="M417.937 176.906C417.755 177.734 417.437 178.427 416.495 178.469C415.63 178.516 414.724 177.526 414.807 176.651C414.901 175.641 415.677 175.427 416.463 175.495C417.25 175.563 417.932 175.964 417.937 176.906Z" fill="#FCB203"/>
<path d="M86.9371 229.818C86.9319 229.62 86.9631 229.427 87.0308 229.24C87.0985 229.057 87.2027 228.891 87.3381 228.75C87.4735 228.604 87.635 228.495 87.8121 228.417C87.9944 228.339 88.1871 228.297 88.385 228.297C89.2965 228.297 90.1819 228.99 90.2131 229.76C90.2131 230.161 90.0777 230.51 89.7965 230.807C89.5204 231.099 89.1767 231.255 88.7756 231.276C87.8069 231.245 86.9683 230.573 86.9371 229.818Z" fill="#FCB203"/>
<path d="M93.1247 181.573C92.2289 181.5 91.1768 180.375 91.3487 179.672C91.406 179.307 91.5779 179.01 91.8747 178.786C92.1664 178.557 92.4997 178.464 92.8643 178.505C93.8331 178.542 94.6716 179.479 94.5258 180.354C94.4737 180.703 94.3174 180.995 94.0518 181.224C93.7862 181.458 93.4789 181.573 93.1247 181.573Z" fill="#FCB203"/>
<mask id="mask1_194_265" style="mask-type:luminance" maskUnits="userSpaceOnUse" x="192" y="0" width="5" height="5">
<path d="M192.203 0H196.203V4.42708H192.203V0Z" fill="white"/>
</mask>
<g mask="url(#mask1_194_265)">
<path d="M193.588 0.0727876C194.421 0.0727876 195.671 1.1457 195.682 1.87487C195.698 2.60404 194.854 3.3332 193.927 3.27591C193.718 3.24987 193.52 3.18737 193.338 3.0832C193.156 2.98425 192.994 2.84883 192.859 2.68737C192.729 2.52591 192.63 2.34883 192.562 2.15091C192.494 1.94779 192.468 1.74466 192.479 1.53633C192.479 0.666539 192.921 0.0675796 193.588 0.0727876Z" fill="#FCB203"/>
</g>
<path d="M352.182 50.5888C351.171 50.5627 350.333 49.8023 350.458 48.9898C350.588 48.094 351.041 47.37 352.041 47.2346C352.801 47.1357 353.442 48.1669 353.421 49.3179C353.437 49.4898 353.416 49.6565 353.359 49.8179C353.301 49.9794 353.218 50.12 353.098 50.245C352.979 50.3648 352.838 50.4586 352.676 50.5211C352.515 50.5784 352.354 50.6044 352.182 50.5888Z" fill="#FCB203"/>
<path d="M281.499 354.167C281.557 355.307 280.916 356.182 280.088 356.094C279.254 356 278.567 355.63 278.385 354.745C278.234 353.958 279.213 352.943 280.103 352.88C281.15 352.802 281.432 353.469 281.499 354.167Z" fill="#FCB203"/>
<mask id="mask2_194_265" style="mask-type:luminance" maskUnits="userSpaceOnUse" x="428" y="192" width="4" height="5">
<path d="M428.203 192.427H432V196.427H428.203V192.427Z" fill="white"/>
</mask>
<g mask="url(#mask2_194_265)">
<path d="M430.547 192.568C431.229 192.594 431.808 192.792 431.901 193.563C431.995 194.339 430.823 195.745 430.125 195.771C429.339 195.797 428.657 194.912 428.735 193.958C428.808 193.078 429.5 192.542 430.547 192.568Z" fill="#FCB203"/>
</g>
<path d="M84.8015 142.323C84.7442 142.698 84.5672 143.005 84.2651 143.234C83.963 143.469 83.6244 143.568 83.2442 143.526C82.3588 143.505 81.5463 142.766 81.5567 142.005C81.5724 141.245 82.5099 140.484 83.3172 140.484C84.1297 140.484 84.8588 141.375 84.8015 142.323Z" fill="#FCB203"/>
<path d="M112.275 329.698C111.452 329.599 110.911 329.136 110.968 328.182C111.015 327.349 111.265 326.662 112.312 326.662C113.359 326.662 114.254 327.443 114.213 328.281C114.176 329 113.213 329.729 112.275 329.698Z" fill="#FCB203"/>
<path d="M343.536 203.693C342.62 203.724 341.745 203.032 341.75 202.229C341.76 201.427 342.089 200.844 342.891 200.709C343.813 200.558 344.969 201.401 344.995 202.167C344.984 202.568 344.833 202.917 344.557 203.209C344.281 203.5 343.938 203.662 343.536 203.693Z" fill="#FCB203"/>
<path d="M116.036 134.11C116.833 134.11 117.588 134.933 117.635 135.818C117.635 136.011 117.599 136.203 117.526 136.386C117.453 136.568 117.349 136.73 117.213 136.87C117.078 137.011 116.922 137.12 116.745 137.203C116.562 137.282 116.375 137.328 116.182 137.339C115.422 137.339 114.547 136.235 114.599 135.344C114.635 134.974 114.792 134.672 115.068 134.433C115.349 134.193 115.672 134.084 116.036 134.11Z" fill="#FCB203"/>
<path d="M235.083 65.1928C235.01 66.0313 234.13 66.8074 233.369 66.7136C233.156 66.6824 232.958 66.6094 232.775 66.5001C232.588 66.3907 232.432 66.2501 232.307 66.0782C232.176 65.9063 232.083 65.7136 232.031 65.5053C231.979 65.2969 231.968 65.0886 231.994 64.8751C232.083 63.9792 232.583 63.474 233.515 63.5053C234.312 63.5469 235.15 64.474 235.083 65.1928Z" fill="#FCB203"/>
<path d="M174.307 68.3179C174.52 68.3075 174.723 68.3439 174.916 68.4168C175.114 68.495 175.286 68.6043 175.437 68.7554C175.588 68.9012 175.708 69.0731 175.786 69.2658C175.869 69.4585 175.906 69.6616 175.906 69.8752C175.906 70.87 175.26 71.5262 174.385 71.4689C173.952 71.4064 173.593 71.2137 173.312 70.8804C173.025 70.5522 172.89 70.1668 172.89 69.7345C172.879 69.5418 172.906 69.3543 172.973 69.1772C173.041 68.995 173.145 68.8387 173.281 68.7033C173.416 68.5679 173.572 68.4637 173.749 68.396C173.932 68.3283 174.119 68.3022 174.307 68.3179Z" fill="#FCB203"/>
<path d="M359.125 270.193C358.114 270.229 357.755 269.604 357.708 268.735C357.661 267.865 357.948 267.167 358.849 266.953C359.609 266.771 360.75 267.797 360.807 268.615C360.864 269.433 360.099 270.151 359.125 270.193Z" fill="#FCB203"/>
<path d="M277.401 330.016C277.187 329.995 276.984 329.938 276.792 329.834C276.604 329.735 276.437 329.599 276.302 329.433C276.167 329.266 276.073 329.078 276.01 328.87C275.953 328.662 275.937 328.453 275.963 328.24C275.953 328.042 275.989 327.849 276.062 327.662C276.135 327.479 276.239 327.318 276.38 327.177C276.526 327.042 276.687 326.938 276.875 326.865C277.057 326.797 277.25 326.771 277.448 326.782C278.344 326.761 278.849 327.438 278.807 328.558C278.786 329.464 278.417 330.042 277.401 330.016Z" fill="#FCB203"/>
<path d="M113.063 24.9847C114.292 24.9326 115.302 25.5159 115.38 26.2399C115.474 27.0732 114.51 28.0628 113.646 28.0263C112.885 27.9899 111.969 26.9586 111.995 26.0888C111.984 25.7868 112.089 25.5263 112.297 25.3128C112.505 25.0941 112.766 24.9847 113.063 24.9847Z" fill="#FCB203"/>
<path d="M199.89 367.084C199.906 367.266 199.88 367.438 199.823 367.61C199.765 367.782 199.672 367.933 199.547 368.068C199.422 368.198 199.281 368.297 199.114 368.37C198.948 368.443 198.771 368.474 198.593 368.474C197.776 368.547 196.838 367.714 196.869 366.933C196.854 366.521 196.979 366.162 197.239 365.849C197.5 365.537 197.833 365.349 198.239 365.292C199.041 365.136 199.823 365.933 199.89 367.084Z" fill="#FCB203"/>
<path d="M270.182 73.1461C270.14 73.9065 269.479 74.245 268.635 74.2867C267.791 74.3283 267.067 74.0211 266.926 73.0783C266.801 72.2658 267.822 71.1773 268.635 71.1565C269.447 71.1408 270.156 71.969 270.182 73.1461Z" fill="#FCB203"/>
<path d="M78.5416 382.708C78.5416 381.865 78.9166 381.401 79.7864 381.406C79.9999 381.401 80.2031 381.437 80.4062 381.516C80.6041 381.594 80.7812 381.703 80.9374 381.854C81.0885 382 81.2135 382.172 81.2968 382.365C81.3854 382.562 81.4322 382.766 81.4374 382.979C81.4062 383.917 80.4635 384.849 79.6562 384.745C78.9479 384.656 78.5104 383.854 78.5416 382.708Z" fill="#FCB203"/>
<path d="M176.848 14.0625C177.692 14.1511 178.307 14.5209 178.364 15.4479C178.359 15.6771 178.312 15.9011 178.223 16.1094C178.13 16.3229 178 16.5052 177.838 16.6667C177.677 16.8282 177.484 16.9532 177.276 17.0417C177.062 17.1302 176.838 17.1719 176.609 17.1771C175.776 17.1042 175.447 16.5521 175.427 15.7709C175.401 14.7761 175.994 14.0573 176.848 14.0625Z" fill="#FCB203"/>
<path d="M424.083 277.547C424 278.391 422.541 279.474 421.802 279.302C420.984 279.104 420.729 278.49 420.797 277.698C420.88 276.688 421.494 276.151 422.515 276.281C423.323 276.38 424 276.698 424.083 277.547Z" fill="#FCB203"/>
<path d="M384.77 352.172C384.593 353.198 383.718 353.313 382.875 353.396C381.89 353.484 381.296 352.974 381.369 352.115C381.447 351.25 381.864 350.641 382.776 350.526C383.692 350.411 384.744 351.307 384.77 352.172Z" fill="#FCB203"/>
<path d="M79.0885 280.526C79.0885 281.282 78.3281 281.474 77.526 281.521C76.6458 281.563 76.0052 281.219 75.8646 280.282C75.75 279.464 76.5469 278.469 77.276 278.453C78.1302 278.433 79.0677 279.355 79.0885 280.526Z" fill="#FCB203"/>
<path d="M329.687 319.552C329.651 320.391 329.166 320.974 328.265 320.969C327.505 320.969 326.672 320.792 326.588 319.75C326.51 318.797 327.312 317.766 328.135 317.729C328.864 317.693 329.656 318.588 329.687 319.552Z" fill="#FCB203"/>
<path d="M363.671 174.157C363.729 175.026 363.067 175.896 362.302 175.969C361.302 176.063 360.583 175.516 360.531 174.63C360.526 174.417 360.557 174.209 360.63 174.011C360.697 173.813 360.807 173.63 360.947 173.474C361.088 173.318 361.255 173.193 361.447 173.099C361.64 173.005 361.838 172.953 362.052 172.938C362.239 172.907 362.427 172.917 362.614 172.964C362.796 173.011 362.968 173.089 363.119 173.203C363.27 173.318 363.395 173.459 363.489 173.625C363.588 173.792 363.645 173.969 363.671 174.157Z" fill="#FCB203"/>
<path d="M209.557 65.0573C208.76 65.0364 208.187 64.75 208.167 63.8489C208.141 62.8958 208.995 61.875 209.792 61.8958C210.516 61.9167 211.417 62.8958 211.396 63.6354C211.375 64.3698 210.531 65.0573 209.557 65.0573Z" fill="#FCB203"/>
<path d="M368.484 233.443C368.448 234.245 367.552 235.157 366.849 235.131C366.042 235.11 365.203 234.235 365.255 233.48C365.281 233.271 365.344 233.073 365.448 232.886C365.547 232.698 365.682 232.542 365.844 232.407C366.005 232.271 366.188 232.172 366.391 232.105C366.594 232.037 366.797 232.016 367.01 232.026C367.865 232.11 368.432 232.553 368.484 233.443Z" fill="#FCB203"/>
<path d="M251.822 94.6199C251.036 94.6199 250.202 93.8126 250.369 93.1199C250.442 92.6824 250.635 92.3074 250.952 92.0001C251.27 91.6876 251.645 91.4949 252.088 91.4324C252.796 91.3282 253.541 92.1928 253.484 92.9532C253.421 93.8074 252.604 94.6251 251.822 94.6199Z" fill="#FCB203"/>
<path d="M229.588 345C228.786 344.865 228.239 344.417 228.266 343.479C228.292 342.542 229 341.734 229.807 341.76C230 341.76 230.187 341.802 230.364 341.885C230.542 341.964 230.693 342.078 230.823 342.219C230.953 342.365 231.052 342.531 231.114 342.714C231.172 342.896 231.198 343.089 231.177 343.281C231.099 344.307 230.469 345.036 229.588 345Z" fill="#FCB203"/>
<mask id="mask3_194_265" style="mask-type:luminance" maskUnits="userSpaceOnUse" x="0" y="235" width="5" height="6">
<path d="M0 235.094H4.20313V240.427H0V235.094Z" fill="white"/>
</mask>
<g mask="url(#mask3_194_265)">
<path d="M1.80191 236.208C2.70816 236.333 3.09358 236.969 3.19254 237.807C3.30191 238.75 2.49462 239.432 1.36962 239.412C0.702952 239.412 0.11441 239.245 0.0519101 238.427C-0.0157979 237.615 1.0467 236.235 1.80191 236.208Z" fill="#FCB203"/>
</g>
<path d="M406.927 113.511C406.854 114.86 406.312 115.568 405.406 115.412C405.005 115.349 404.672 115.167 404.401 114.86C404.13 114.558 403.989 114.203 403.979 113.797C403.89 112.969 404.911 112.099 405.844 112.105C406.672 112.125 406.984 112.537 406.927 113.511Z" fill="#FCB203"/>
<path d="M181.505 338.667C181.505 339.537 180.484 340.667 179.729 340.568C179.359 340.542 179.047 340.401 178.791 340.141C178.531 339.875 178.396 339.563 178.38 339.193C178.38 338.964 178.427 338.74 178.515 338.521C178.609 338.307 178.734 338.12 178.896 337.953C179.062 337.787 179.25 337.656 179.463 337.563C179.677 337.469 179.901 337.422 180.135 337.412C180.489 337.412 180.802 337.531 181.062 337.771C181.328 338.016 181.474 338.313 181.505 338.667Z" fill="#FCB203"/>
<path d="M123.161 96.9952C123.166 97.1931 123.13 97.3806 123.057 97.5629C122.979 97.7452 122.874 97.9066 122.734 98.042C122.593 98.1827 122.426 98.2868 122.244 98.3545C122.062 98.4274 121.869 98.4587 121.676 98.4483C121.229 98.417 120.854 98.2399 120.541 97.917C120.234 97.5941 120.072 97.2139 120.057 96.766C120.088 95.8024 120.708 95.4274 121.598 95.3962C122.604 95.3649 123.176 95.9587 123.161 96.9952Z" fill="#FCB203"/>
<path d="M98.3433 310.229C98.3433 310.448 98.2964 310.651 98.2131 310.849C98.135 311.047 98.0152 311.219 97.8641 311.375C97.7131 311.526 97.5412 311.641 97.3433 311.729C97.1454 311.813 96.9423 311.854 96.7287 311.859C95.7444 311.859 95.3954 311.245 95.3746 310.344C95.3537 309.344 95.9371 308.698 96.8954 308.734C97.8537 308.771 98.2756 309.333 98.3433 310.229Z" fill="#FCB203"/>
<path d="M387.651 103.25C387.651 104.214 387.145 104.682 386.213 104.698C385.354 104.698 384.411 103.854 384.52 103.104C384.651 102.167 385.39 101.875 386.218 101.828C387.177 101.76 387.651 102.281 387.651 103.25Z" fill="#FCB203"/>
<path d="M319.572 105.312C318.552 105.312 317.588 104.495 317.656 103.698C317.713 103.026 318.713 102.281 319.557 102.318C320.505 102.359 320.953 102.885 320.895 103.818C320.833 104.646 320.645 105.385 319.572 105.312Z" fill="#FCB203"/>
<path d="M328.489 153.094C329.354 153.167 330.005 153.5 330.005 154.49C329.994 154.704 329.937 154.912 329.843 155.105C329.744 155.297 329.614 155.464 329.447 155.605C329.281 155.745 329.093 155.849 328.885 155.912C328.677 155.974 328.468 155.995 328.249 155.969C327.364 155.922 326.781 155.495 326.76 154.532C326.749 153.631 327.432 153.068 328.489 153.094Z" fill="#FCB203"/>
<path d="M331.552 46.9741C331.374 47.7918 330.729 48.1304 329.869 48.1147C329.01 48.0939 328.302 47.297 328.406 46.62C328.531 46.1981 328.77 45.8491 329.119 45.5783C329.468 45.3127 329.864 45.172 330.307 45.1616C331.02 45.2345 331.65 46.0783 331.552 46.9741Z" fill="#FCB203"/>
<path d="M104.635 45.5992C104.682 46.4533 103.932 47.4325 103.161 47.4273C102.182 47.4273 101.848 46.6669 101.692 45.8856C101.525 45.0263 102.093 44.4169 103.01 44.3648C103.926 44.3127 104.588 44.7763 104.635 45.5992Z" fill="#FCB203"/>
<path d="M202.218 86.9844C202.411 86.9844 202.593 87.026 202.77 87.1042C202.942 87.1771 203.098 87.2865 203.229 87.4271C203.354 87.5677 203.452 87.7292 203.515 87.9115C203.577 88.0938 203.604 88.276 203.588 88.4688C203.614 89.4531 202.973 90.224 202.145 90.2344C201.947 90.2396 201.765 90.2083 201.583 90.1406C201.4 90.0677 201.244 89.9688 201.104 89.8281C200.968 89.6927 200.859 89.5365 200.786 89.3594C200.713 89.1771 200.682 88.9896 200.682 88.7969C200.723 87.8542 201.411 87.0104 202.218 86.9844Z" fill="#FCB203"/>
<path d="M279.245 10.0783C279.14 10.87 278.599 11.2189 277.818 11.2189C277.604 11.2293 277.396 11.1981 277.198 11.12C277 11.0418 276.823 10.9273 276.672 10.771C276.526 10.62 276.411 10.4429 276.344 10.2398C276.271 10.0366 276.239 9.83351 276.26 9.61997C276.291 8.80747 276.515 8.05747 277.479 7.93247C278.198 7.83351 279.302 9.16164 279.245 10.0783Z" fill="#FCB203"/>
<path d="M105.182 277.407C105.229 278.261 104.52 278.922 103.494 278.922C102.635 278.922 101.973 278.615 101.942 277.594C101.916 276.667 102.588 276.037 103.598 276.032C103.791 276.021 103.979 276.047 104.166 276.11C104.348 276.177 104.515 276.271 104.666 276.401C104.812 276.526 104.932 276.677 105.02 276.854C105.109 277.026 105.161 277.209 105.182 277.407Z" fill="#FCB203"/>
<path d="M102.025 383.854C102.822 383.901 103.541 384.636 103.458 385.333C103.369 386.037 102.432 386.906 101.687 386.854C100.744 386.781 100.395 386.094 100.301 385.292C100.208 384.495 101.14 383.802 102.025 383.854Z" fill="#FCB203"/>
<path d="M256.369 17.3856C255.609 17.3179 255 17.0366 255.005 16.1356C255.015 15.2345 255.823 14.3908 256.573 14.3804C256.974 14.4116 257.317 14.5627 257.604 14.8439C257.89 15.1252 258.052 15.4637 258.093 15.8595C258.119 16.6668 257.312 17.3856 256.369 17.3856Z" fill="#FCB203"/>
<path d="M291.438 83.318C291.464 84.1045 290.562 85.0263 289.776 84.9118C289.411 84.8857 289.099 84.7399 288.844 84.4795C288.589 84.2191 288.453 83.9066 288.437 83.542C288.406 83.3284 288.417 83.1149 288.469 82.9066C288.521 82.6982 288.609 82.5107 288.74 82.3388C288.87 82.167 289.026 82.0211 289.208 81.9118C289.396 81.8024 289.594 81.7347 289.807 81.7034C290.604 81.6305 291.401 82.417 291.438 83.318Z" fill="#FCB203"/>
<path d="M340.505 252.245C340.484 252.599 340.343 252.896 340.088 253.141C339.838 253.385 339.531 253.516 339.177 253.526C338.276 253.604 337.244 252.677 337.323 251.838C337.328 251.469 337.458 251.156 337.713 250.891C337.968 250.625 338.276 250.479 338.645 250.458C339.458 250.365 340.51 251.365 340.505 252.245Z" fill="#FCB203"/>
<path d="M368.114 208.219C369.14 208.219 370.015 208.948 370.015 209.844C369.968 210.276 369.781 210.646 369.463 210.943C369.146 211.24 368.771 211.396 368.338 211.417C367.578 211.385 366.896 210.526 366.927 209.604C366.932 208.828 367.245 208.271 368.114 208.219Z" fill="#FCB203"/>
<path d="M253.51 416.708C253.489 416.25 253.624 415.844 253.916 415.49C254.203 415.135 254.578 414.917 255.026 414.844C255.869 414.734 256.432 415.286 256.411 416.276C256.39 417.115 256.124 417.87 255.13 417.896C254.312 417.922 253.63 417.583 253.51 416.708Z" fill="#FCB203"/>
<path d="M315.994 297.875C315.775 297.875 315.567 297.839 315.364 297.756C315.161 297.677 314.978 297.563 314.822 297.417C314.661 297.266 314.536 297.094 314.437 296.901C314.343 296.704 314.291 296.495 314.275 296.282C314.192 295.313 314.786 294.855 315.63 294.704C316.39 294.568 317.322 295.641 317.301 296.579C317.291 297.427 316.744 297.787 315.994 297.875Z" fill="#FCB203"/>
<path d="M46.3542 100.417C47.5729 100.375 47.9219 101.052 48.0417 101.875C48.0625 102.073 48.0469 102.266 47.9948 102.453C47.9427 102.641 47.8542 102.813 47.7344 102.969C47.6146 103.125 47.4688 103.25 47.3021 103.349C47.1302 103.448 46.9531 103.516 46.7552 103.542C46.0573 103.568 45.125 102.646 45.0625 101.87C45.0625 101.5 45.1823 101.177 45.4323 100.901C45.6771 100.62 45.9844 100.459 46.3542 100.417Z" fill="#FCB203"/>
<path d="M45.7598 330.219C44.6608 330.219 44.2389 329.636 44.2129 328.745C44.2025 328.547 44.2337 328.359 44.3066 328.172C44.3796 327.99 44.4837 327.828 44.6243 327.688C44.765 327.552 44.9316 327.448 45.1139 327.375C45.3014 327.307 45.4889 327.281 45.6868 327.292C46.5723 327.318 47.4316 328.136 47.3327 328.927C47.2181 329.896 46.4421 330.078 45.7598 330.219Z" fill="#FCB203"/>
<path d="M175.515 414.62C176.249 414.662 176.833 414.917 176.848 415.834C176.859 416.75 176.15 417.615 175.374 417.657C174.973 417.625 174.63 417.479 174.333 417.209C174.041 416.938 173.864 416.604 173.801 416.209C173.76 415.396 174.546 414.646 175.515 414.62Z" fill="#FCB203"/>
<path d="M299.411 133.474C299.338 134.235 298.994 134.813 298.192 134.943C297.489 135.052 296.463 134.042 296.484 133.339C296.484 132.719 297.463 131.901 298.15 132C298.952 132.125 299.317 132.688 299.411 133.474Z" fill="#FCB203"/>
<path d="M17.338 175.505C17.2963 176.266 17.0046 176.849 16.1609 176.927C15.2598 177.011 14.1505 176.12 14.265 175.334C14.2859 174.938 14.4421 174.594 14.7286 174.318C15.015 174.037 15.3588 173.891 15.7546 173.88C16.5515 173.834 17.3119 174.63 17.338 175.505Z" fill="#FCB203"/>
<path d="M69.5673 259.047C68.6766 259.006 68.187 258.417 68.3016 257.49C68.4058 256.646 68.7704 256.026 69.76 256.037C70.7443 256.042 71.4214 256.677 71.3433 257.594C71.3173 257.808 71.2548 258.006 71.1558 258.198C71.0516 258.386 70.9162 258.547 70.7495 258.683C70.5881 258.818 70.4006 258.917 70.1975 258.985C69.9891 259.047 69.7808 259.068 69.5673 259.047Z" fill="#FCB203"/>
<path d="M108.323 173.339C107.562 173.094 106.906 172.683 106.802 171.823C106.718 171.063 107.724 170.209 108.494 170.349C109.265 170.49 109.791 170.907 109.656 171.75C109.531 172.511 109.291 173.256 108.323 173.339Z" fill="#FCB203"/>
<path d="M298.583 296.479C299.443 296.625 299.812 297.271 299.922 298.068C299.922 298.261 299.891 298.443 299.812 298.625C299.74 298.802 299.635 298.959 299.495 299.094C299.354 299.224 299.198 299.328 299.016 299.391C298.833 299.459 298.646 299.49 298.453 299.474C297.745 299.391 297.125 299.058 297.016 298.245C296.927 297.584 297.875 296.521 298.583 296.479Z" fill="#FCB203"/>
<path d="M17.0417 255.589C17.0157 256.203 16.4011 256.479 15.6459 256.521C14.6615 256.578 13.9428 255.88 14.0365 255C14.1251 254.125 14.573 253.537 15.5157 253.547C16.323 253.557 17.073 254.469 17.0417 255.589Z" fill="#FCB203"/>
<path d="M385.198 331.599C384.411 331.599 383.958 331.052 383.885 330.162C383.807 329.276 384.214 328.646 385.099 328.49C385.859 328.365 386.724 329.25 386.781 330.089C386.833 330.922 386.198 331.537 385.198 331.599Z" fill="#FCB203"/>
<path d="M417.598 256.75C417.432 257.484 417.02 258.068 416.077 258.083C415.864 258.078 415.661 258.031 415.468 257.938C415.275 257.849 415.109 257.719 414.968 257.557C414.827 257.396 414.723 257.208 414.661 257.005C414.604 256.802 414.583 256.589 414.609 256.38C414.671 255.62 414.968 255.042 415.895 255.104C416.114 255.104 416.327 255.146 416.536 255.224C416.739 255.307 416.921 255.427 417.083 255.578C417.244 255.734 417.364 255.912 417.458 256.115C417.546 256.318 417.593 256.531 417.598 256.75Z" fill="#FCB203"/>
<path d="M135.416 298.766C135.218 299.563 134.578 299.933 133.776 299.985C133.088 300.032 132.364 299.136 132.463 298.407C132.479 298.047 132.614 297.74 132.864 297.485C133.114 297.224 133.422 297.084 133.781 297.063C134.474 297 135.453 298.021 135.416 298.766Z" fill="#FCB203"/>
<path d="M323.338 169.745C323.536 169.73 323.723 169.761 323.906 169.834C324.088 169.907 324.249 170.011 324.385 170.151C324.52 170.297 324.619 170.459 324.682 170.646C324.749 170.828 324.77 171.021 324.749 171.219C324.749 171.584 324.624 171.901 324.369 172.167C324.114 172.438 323.807 172.578 323.437 172.594C322.676 172.677 321.853 171.792 321.88 170.922C321.9 170.23 322.515 169.745 323.338 169.745Z" fill="#FCB203"/>
<path d="M328.63 387.667C327.895 387.667 327.343 387.255 327.302 386.308C327.26 385.365 327.979 384.573 328.822 384.615C329.791 384.662 330.093 385.375 330.171 386.188C330.255 387.146 329.723 387.599 328.63 387.667Z" fill="#FCB203"/>
<path d="M217.036 99.6825C217.005 100.677 216.364 100.985 215.489 100.974C214.682 100.974 214.124 100.594 214.182 99.7294C214.244 98.8648 214.562 98.1773 215.567 98.2085C216.468 98.245 216.989 98.7554 217.036 99.6825Z" fill="#FCB203"/>
<path d="M109.692 247.729C109.739 248.459 109.02 249.089 108.124 249.104C107.796 249.146 107.505 249.068 107.249 248.86C106.989 248.657 106.848 248.391 106.812 248.063C106.703 247.334 107.416 246.422 108.083 246.365C108.489 246.354 108.843 246.479 109.15 246.74C109.458 247 109.64 247.328 109.692 247.729Z" fill="#FCB203"/>
<path d="M295.817 173.985C295.65 174.917 295.057 175.188 294.27 175.12C293.489 175.058 292.755 174.224 292.9 173.547C292.927 173.37 292.984 173.203 293.078 173.052C293.171 172.896 293.291 172.766 293.432 172.662C293.578 172.552 293.739 172.479 293.911 172.433C294.088 172.391 294.26 172.38 294.442 172.412C295.354 172.532 295.697 173.214 295.817 173.985Z" fill="#FCB203"/>
<path d="M304.651 145.375C304.578 146.089 304.401 146.735 303.484 146.802C302.635 146.86 301.817 146.271 301.859 145.526C301.906 144.599 302.572 144.151 303.375 144.047C304.27 143.927 304.572 144.573 304.651 145.375Z" fill="#FCB203"/>
<path d="M333.802 215.5C333.714 216.355 333.349 216.964 332.411 217.068C331.542 217.162 331.042 216.641 331.016 215.646C331.016 214.865 331.219 214.193 332.12 214.198C332.937 214.198 333.63 214.552 333.802 215.5Z" fill="#FCB203"/>
<path d="M148.266 159.708C148.292 160.542 147.63 161.302 146.896 161.187C146.161 161.078 145.604 160.687 145.542 159.88C145.474 159.068 146.38 158.161 147.099 158.208C147.661 158.25 148.25 159 148.266 159.708Z" fill="#FCB203"/>
<path d="M217.792 332.151C217.573 332.88 217.484 333.745 216.448 333.787C216.25 333.807 216.057 333.792 215.87 333.734C215.677 333.677 215.505 333.583 215.354 333.453C215.203 333.328 215.083 333.172 214.995 332.995C214.906 332.818 214.854 332.63 214.844 332.432C214.724 331.63 215.354 331.047 216.297 331.005C217.104 330.979 217.635 331.313 217.792 332.151Z" fill="#FCB203"/>
<path d="M161.135 284.984C161.135 285.766 160.375 286.552 159.672 286.396C158.911 286.224 158.172 285.828 158.203 284.906C158.24 283.932 159.005 283.714 159.823 283.719C160 283.703 160.167 283.724 160.333 283.787C160.5 283.844 160.641 283.932 160.771 284.052C160.896 284.177 160.99 284.318 161.052 284.479C161.12 284.641 161.146 284.807 161.135 284.984Z" fill="#FCB203"/>
<path d="M108.552 262.25C107.624 262.219 107.067 261.605 107.156 260.735C107.166 260.365 107.302 260.058 107.562 259.797C107.822 259.542 108.135 259.412 108.499 259.412C109.286 259.344 110.02 260.235 109.958 261.125C109.9 262.021 109.244 262.224 108.552 262.25Z" fill="#FCB203"/>
<path d="M170.281 323.516C170.426 322.734 170.817 322.146 171.656 322.26C172.416 322.365 173.228 322.641 173.213 323.646C173.213 324.375 172.338 325.161 171.666 325.073C171.468 325.062 171.281 325.016 171.109 324.927C170.932 324.844 170.775 324.729 170.645 324.583C170.52 324.437 170.421 324.271 170.359 324.083C170.296 323.901 170.27 323.708 170.281 323.516Z" fill="#FCB203"/>
<path d="M117.484 160.906C118.192 160.906 118.583 161.438 118.692 162.188C118.797 162.943 118.474 163.599 117.609 163.651C117.203 163.703 116.838 163.604 116.505 163.37C116.177 163.13 115.974 162.807 115.89 162.411C115.724 161.766 116.521 160.964 117.484 160.906Z" fill="#FCB203"/>
<path d="M260.895 324.812C260.697 324.823 260.51 324.797 260.322 324.729C260.14 324.667 259.973 324.568 259.827 324.437C259.682 324.307 259.567 324.151 259.484 323.974C259.4 323.797 259.348 323.609 259.338 323.417C259.38 322.464 260.062 322.099 260.885 321.995C261.786 321.88 262.124 322.495 262.229 323.25C262.255 323.443 262.239 323.635 262.182 323.823C262.124 324.01 262.036 324.177 261.911 324.328C261.781 324.474 261.63 324.594 261.452 324.677C261.275 324.76 261.088 324.807 260.895 324.812Z" fill="#FCB203"/>
<path d="M325.036 183.927C325.098 184.802 324.489 185.599 323.77 185.631C323.046 185.657 322.197 184.964 322.218 184.224C322.239 183.214 323.005 182.964 323.801 182.901C323.953 182.875 324.104 182.886 324.255 182.927C324.4 182.964 324.536 183.037 324.65 183.136C324.77 183.23 324.864 183.349 324.932 183.49C324.999 183.625 325.031 183.771 325.036 183.927Z" fill="#FCB203"/>
<path d="M171.015 107.177C171.874 107.219 172.468 107.677 172.536 108.557C172.604 109.542 171.848 109.865 171.041 109.985C170.145 110.12 169.796 109.578 169.718 108.776C169.64 107.854 170.057 107.318 171.015 107.177Z" fill="#FCB203"/>
<path d="M134.823 133.646C134.901 134.474 134.026 135.526 133.307 135.474C132.474 135.412 132.135 134.776 131.979 134.073C131.823 133.37 132.531 132.552 133.349 132.552C134.104 132.557 134.698 132.886 134.823 133.646Z" fill="#FCB203"/>
<path d="M185.594 108.359C185.521 109.12 184.687 109.917 184.026 109.781C183.094 109.583 182.844 108.865 182.885 108.021C182.916 107.261 183.37 106.922 184.099 106.943C184.984 106.969 185.666 107.615 185.594 108.359Z" fill="#FCB203"/>
<path d="M163.667 314.396C163.542 315.157 163.229 315.849 162.339 316.026C161.604 316.172 160.927 315.469 160.896 314.584C160.865 313.703 161.385 313.318 162.167 313.245C162.344 313.209 162.521 313.214 162.698 313.256C162.87 313.297 163.031 313.37 163.177 313.479C163.318 313.594 163.432 313.724 163.521 313.886C163.604 314.047 163.656 314.214 163.667 314.396Z" fill="#FCB203"/>
<path d="M259.568 294.407C259.542 294.808 259.38 295.141 259.089 295.412C258.797 295.688 258.448 295.823 258.047 295.818C257.177 295.896 256.797 295.266 256.833 294.474C256.87 293.594 257.349 292.969 258.271 292.985C259.073 293 259.479 293.568 259.568 294.407Z" fill="#FCB203"/>
<path d="M229.218 104.437C229.192 104.635 229.13 104.818 229.025 104.989C228.926 105.161 228.801 105.307 228.64 105.427C228.484 105.547 228.307 105.63 228.119 105.682C227.926 105.734 227.734 105.745 227.536 105.719C226.796 105.62 226.484 105.13 226.479 104.437C226.479 103.542 227.119 102.781 227.827 102.896C228.218 102.948 228.546 103.114 228.812 103.406C229.072 103.703 229.208 104.042 229.218 104.437Z" fill="#FCB203"/>
<path d="M130.041 286.604C129.948 287.365 129.328 287.833 128.52 287.927C127.713 288.026 127.276 287.458 127.265 286.646C127.25 285.833 127.541 285.281 128.401 285.187C128.609 285.161 128.812 285.177 129.01 285.234C129.208 285.297 129.385 285.396 129.541 285.531C129.698 285.667 129.817 285.828 129.906 286.016C129.994 286.203 130.036 286.401 130.041 286.604Z" fill="#FCB203"/>
<path d="M325.031 260.307C324.984 260.708 324.807 261.042 324.494 261.297C324.187 261.557 323.828 261.677 323.427 261.651C322.666 261.521 322.098 261.099 322.229 260.234C322.348 259.448 322.645 258.672 323.64 258.714C324.364 258.714 325.088 259.625 325.031 260.307Z" fill="#FCB203"/>
<path d="M99.7602 217.813C98.9477 217.698 98.2185 217.453 98.1768 216.474C98.1404 215.578 98.5987 215.006 99.5258 214.959C100.458 214.907 100.901 215.521 100.922 216.396C100.942 217.157 100.63 217.724 99.7602 217.813Z" fill="#FCB203"/>
<path d="M205.515 127.391C205.671 126.328 206.385 126.068 207.223 126.11C207.89 126.141 208.431 126.453 208.379 127.25C208.333 128.047 207.411 128.922 206.671 128.839C206.333 128.766 206.051 128.594 205.833 128.323C205.619 128.047 205.51 127.74 205.515 127.391Z" fill="#FCB203"/>
<path d="M301.073 240.193C301.87 240.214 302.458 240.474 302.557 241.349C302.661 242.229 302.088 243.104 301.396 243.063C300.489 243.021 300.01 242.422 299.901 241.568C299.792 240.714 300.281 240.292 301.073 240.193Z" fill="#FCB203"/>
<path d="M269.666 115.933C270.077 115.99 270.416 116.183 270.682 116.506C270.942 116.828 271.062 117.198 271.031 117.62C270.9 118.438 270.312 118.756 269.51 118.756C268.671 118.74 268.197 118.266 268.296 117.433C268.395 116.599 268.843 115.99 269.666 115.933Z" fill="#FCB203"/>
<path d="M329.104 227.703C329.062 228.105 328.906 228.453 328.635 228.75C328.359 229.047 328.026 229.23 327.63 229.297C326.932 229.334 326.172 228.542 326.203 227.756C326.192 227.594 326.213 227.443 326.27 227.297C326.328 227.151 326.411 227.021 326.526 226.912C326.635 226.802 326.765 226.724 326.916 226.672C327.062 226.62 327.213 226.599 327.369 226.615C328.177 226.599 328.927 226.735 329.104 227.703Z" fill="#FCB203"/>
<path d="M146.781 128.594C146.729 129.276 146.479 129.896 145.64 130.052C144.807 130.208 143.994 129.391 143.994 128.51C143.994 127.75 144.452 127.401 145.13 127.297C145.327 127.26 145.525 127.266 145.718 127.313C145.916 127.365 146.093 127.448 146.249 127.573C146.406 127.698 146.531 127.849 146.624 128.026C146.718 128.203 146.77 128.396 146.781 128.594Z" fill="#FCB203"/>
<path d="M242.062 129.438C242.349 129.485 242.588 129.62 242.776 129.844C242.963 130.063 243.057 130.318 243.062 130.61C243.135 131.344 242.094 132.125 241.25 132.047C240.916 132.042 240.64 131.917 240.411 131.672C240.187 131.427 240.088 131.141 240.109 130.807C240.067 129.938 240.672 129.38 242.062 129.438Z" fill="#FCB203"/>
<path d="M128.75 225.13C128.693 225.995 128.172 226.344 127.37 226.359C126.339 226.38 126.036 225.667 125.995 224.839C125.974 224.682 125.984 224.526 126.026 224.375C126.068 224.224 126.141 224.083 126.24 223.964C126.339 223.839 126.458 223.74 126.599 223.667C126.74 223.594 126.891 223.552 127.047 223.542C127.828 223.458 128.74 224.339 128.75 225.13Z" fill="#FCB203"/>
<path d="M260.208 106.933C260.4 106.948 260.583 107 260.755 107.084C260.932 107.172 261.083 107.287 261.208 107.433C261.338 107.578 261.432 107.745 261.494 107.927C261.557 108.115 261.577 108.302 261.567 108.495C261.489 109.282 261.077 109.881 260.239 109.75C259.479 109.636 258.661 109.391 258.666 108.37C258.713 107.974 258.88 107.641 259.171 107.37C259.463 107.099 259.807 106.953 260.208 106.933Z" fill="#FCB203"/>
<path d="M305.896 207.24C305.792 207.88 305.568 208.438 304.755 208.438C303.948 208.438 303.021 207.536 303.109 206.786C303.208 205.943 303.797 205.609 304.583 205.625C305.609 205.651 305.818 206.385 305.896 207.24Z" fill="#FCB203"/>
<path d="M284.916 273.792C284.021 273.74 283.708 273.084 283.661 272.37C283.609 271.656 283.89 270.964 284.745 270.802C284.937 270.781 285.13 270.802 285.318 270.86C285.505 270.917 285.672 271.011 285.818 271.136C285.969 271.266 286.083 271.417 286.172 271.594C286.255 271.766 286.302 271.953 286.312 272.151C286.312 272.558 286.177 272.917 285.916 273.224C285.651 273.537 285.318 273.724 284.916 273.792Z" fill="#FCB203"/>
<path d="M175.036 137.594C174.952 138.375 174.583 139.026 173.629 139.026C172.796 139.026 172.39 138.417 172.307 137.662C172.223 136.901 173.239 136.052 174.041 136.157C174.848 136.266 175.015 136.829 175.036 137.594Z" fill="#FCB203"/>
<path d="M286.37 301.917C287.312 301.948 287.781 302.589 287.891 303.375C287.995 304.162 287.458 304.636 286.651 304.703C286.458 304.735 286.271 304.724 286.078 304.672C285.891 304.615 285.724 304.526 285.578 304.396C285.437 304.266 285.323 304.11 285.25 303.927C285.177 303.745 285.146 303.558 285.156 303.365C285.187 302.547 285.682 301.964 286.37 301.917Z" fill="#FCB203"/>
<path d="M249.057 323.849C249.073 324.006 249.057 324.157 249.016 324.302C248.969 324.453 248.896 324.584 248.792 324.703C248.693 324.818 248.573 324.912 248.432 324.98C248.292 325.047 248.146 325.084 247.99 325.089C247.792 325.11 247.604 325.094 247.417 325.042C247.224 324.985 247.052 324.901 246.901 324.782C246.745 324.662 246.615 324.516 246.516 324.349C246.417 324.183 246.354 324 246.323 323.808C246.281 323.068 247.005 322.198 247.708 322.219C248.724 322.245 248.906 323.032 249.057 323.849Z" fill="#FCB203"/>
<path d="M137.578 259.61C137.182 259.589 136.844 259.438 136.562 259.151C136.281 258.865 136.141 258.521 136.13 258.12C136.031 257.203 136.677 256.875 137.432 256.901C138.276 256.922 138.953 257.323 138.953 258.282C138.964 259.136 138.365 259.464 137.578 259.61Z" fill="#FCB203"/>
<path d="M316.057 269.776C315.969 270.177 315.76 270.5 315.427 270.75C315.099 270.995 314.729 271.099 314.317 271.073C313.442 270.938 313.219 270.287 313.234 269.552C313.26 268.724 313.698 268.203 314.573 268.36C315.396 268.49 315.989 268.933 316.057 269.776Z" fill="#FCB203"/>
<path d="M104.302 205.427C103.604 205.302 102.906 205.177 102.859 204.255C102.859 203.854 102.995 203.505 103.276 203.214C103.552 202.917 103.891 202.76 104.292 202.734C104.693 202.766 105.026 202.927 105.297 203.219C105.573 203.51 105.708 203.859 105.703 204.255C105.682 205 105.12 205.458 104.302 205.427Z" fill="#FCB203"/>
<path d="M129.307 190.578C129.307 189.589 129.994 188.776 130.676 188.927C130.874 188.959 131.057 189.021 131.223 189.12C131.395 189.224 131.541 189.349 131.661 189.505C131.781 189.662 131.869 189.834 131.921 190.026C131.973 190.214 131.989 190.407 131.968 190.599C131.947 191.479 131.426 191.834 130.604 191.782C129.781 191.735 129.327 191.313 129.307 190.578Z" fill="#FCB203"/>
<path d="M224.708 305.948C224.067 305.802 223.51 305.568 223.536 304.766C223.562 303.969 224.432 303.016 225.197 303.151C225.375 303.172 225.541 303.229 225.697 303.318C225.849 303.412 225.984 303.526 226.088 303.667C226.197 303.813 226.27 303.969 226.317 304.146C226.359 304.318 226.364 304.495 226.338 304.667C226.302 305.714 225.489 305.813 224.708 305.948Z" fill="#FCB203"/>
<path d="M205.374 327.542C205.307 328.302 205.135 328.995 204.249 329.099C203.494 329.188 202.489 328.193 202.645 327.479C202.713 327.12 202.89 326.828 203.171 326.599C203.452 326.37 203.775 326.255 204.14 326.266C205.031 326.229 205.348 326.787 205.374 327.542Z" fill="#FCB203"/>
<path d="M190.49 302.584C189.615 302.631 188.787 302.026 188.891 301.328C188.912 301.131 188.964 300.948 189.057 300.776C189.146 300.605 189.266 300.453 189.417 300.328C189.563 300.203 189.734 300.11 189.917 300.052C190.104 299.99 190.292 299.969 190.484 299.98C190.662 299.959 190.833 299.974 191 300.032C191.167 300.089 191.313 300.183 191.432 300.308C191.557 300.433 191.651 300.573 191.708 300.74C191.766 300.907 191.781 301.078 191.761 301.256C191.776 301.427 191.755 301.599 191.693 301.766C191.636 301.933 191.547 302.078 191.427 302.203C191.302 302.334 191.162 302.427 191 302.495C190.833 302.563 190.667 302.589 190.49 302.584Z" fill="#FCB203"/>
<path d="M272.229 145.589C272.963 145.808 273.64 146.151 273.677 147.11C273.703 147.844 272.916 148.381 272.015 148.282C271.208 148.188 270.729 147.776 270.796 146.912C270.838 146.542 270.994 146.235 271.265 145.985C271.536 145.735 271.859 145.604 272.229 145.589Z" fill="#FCB203"/>
</svg>
